<?xml version="1.0" encoding="UTF-8" standalone="no"?>
<!-- Created with Inkscape (http://www.inkscape.org/) -->

<svg
   xmlns:dc="http://purl.org/dc/elements/1.1/"
   xmlns:cc="http://creativecommons.org/ns#"
   xmlns:rdf="http://www.w3.org/1999/02/22-rdf-syntax-ns#"
   xmlns:svg="http://www.w3.org/2000/svg"
   xmlns="http://www.w3.org/2000/svg"
   xmlns:sodipodi="http://sodipodi.sourceforge.net/DTD/sodipodi-0.dtd"
   xmlns:inkscape="http://www.inkscape.org/namespaces/inkscape"
   id="svg3023"
   version="1.1"
   inkscape:version="0.48.2 r9819"
   width="765"
   height="765"
   xml:space="preserve"
   sodipodi:docname="blue-dot-black-text.svg"><metadata
     id="metadata3029"><rdf:RDF><cc:Work
         rdf:about=""><dc:format>image/svg+xml</dc:format><dc:type
           rdf:resource="http://purl.org/dc/dcmitype/StillImage" /><dc:title></dc:title></cc:Work></rdf:RDF></metadata><defs
     id="defs3027"><clipPath
       clipPathUnits="userSpaceOnUse"
       id="clipPath3051"><path
         d="M 0,0 612,0 612,612 0,612 0,0 z"
         id="path3053" /></clipPath><clipPath
       clipPathUnits="userSpaceOnUse"
       id="clipPath3107"><path
         d="M 0,0 612,0 612,612 0,612 0,0 z"
         id="path3109" /></clipPath><clipPath
       clipPathUnits="userSpaceOnUse"
       id="clipPath3125"><path
         d="M 0,0 612,0 612,612 0,612 0,0 z"
         id="path3127" /></clipPath><clipPath
       clipPathUnits="userSpaceOnUse"
       id="clipPath3139"><path
         d="M 0,0 612,0 612,612 0,612 0,0 z"
         id="path3141" /></clipPath><clipPath
       clipPathUnits="userSpaceOnUse"
       id="clipPath3155"><path
         d="M 0,0 612,0 612,612 0,612 0,0 z"
         id="path3157" /></clipPath><clipPath
       clipPathUnits="userSpaceOnUse"
       id="clipPath3215"><path
         d="M 0,0 612,0 612,612 0,612 0,0 z"
         id="path3217" /></clipPath><clipPath
       clipPathUnits="userSpaceOnUse"
       id="clipPath3233"><path
         d="M 0,0 612,0 612,612 0,612 0,0 z"
         id="path3235" /></clipPath><clipPath
       clipPathUnits="userSpaceOnUse"
       id="clipPath3247"><path
         d="M 0,0 612,0 612,612 0,612 0,0 z"
         id="path3249" /></clipPath><clipPath
       clipPathUnits="userSpaceOnUse"
       id="clipPath3263"><path
         d="M 0,0 612,0 612,612 0,612 0,0 z"
         id="path3265" /></clipPath><clipPath
       clipPathUnits="userSpaceOnUse"
       id="clipPath3323"><path
         d="M 0,0 612,0 612,612 0,612 0,0 z"
         id="path3325" /></clipPath><clipPath
       clipPathUnits="userSpaceOnUse"
       id="clipPath3341"><path
         d="M 0,0 612,0 612,612 0,612 0,0 z"
         id="path3343" /></clipPath><clipPath
       clipPathUnits="userSpaceOnUse"
       id="clipPath3357"><path
         d="M 0,0 612,0 612,612 0,612 0,0 z"
         id="path3359" /></clipPath><clipPath
       clipPathUnits="userSpaceOnUse"
       id="clipPath3373"><path
         d="M 0,0 612,0 612,612 0,612 0,0 z"
         id="path3375" /></clipPath><clipPath
       clipPathUnits="userSpaceOnUse"
       id="clipPath3429"><path
         d="M 0,0 612,0 612,612 0,612 0,0 z"
         id="path3431" /></clipPath><clipPath
       clipPathUnits="userSpaceOnUse"
       id="clipPath3453"><path
         d="M 0,0 612,0 612,612 0,612 0,0 z"
         id="path3455" /></clipPath><clipPath
       clipPathUnits="userSpaceOnUse"
       id="clipPath3473"><path
         d="M 0,0 612,0 612,612 0,612 0,0 z"
         id="path3475" /></clipPath><clipPath
       clipPathUnits="userSpaceOnUse"
       id="clipPath3497"><path
         d="M 0,0 612,0 612,612 0,612 0,0 z"
         id="path3499" /></clipPath><clipPath
       clipPathUnits="userSpaceOnUse"
       id="clipPath4728"><path
         inkscape:connector-curvature="0"
         d="M 0,0 612,0 612,612 0,612 0,0 z"
         id="path4730" /></clipPath><clipPath
       clipPathUnits="userSpaceOnUse"
       id="clipPath4752"><path
         inkscape:connector-curvature="0"
         d="M 0,0 612,0 612,612 0,612 0,0 z"
         id="path4754" /></clipPath><clipPath
       clipPathUnits="userSpaceOnUse"
       id="clipPath4772"><path
         inkscape:connector-curvature="0"
         d="M 0,0 612,0 612,612 0,612 0,0 z"
         id="path4774" /></clipPath><clipPath
       clipPathUnits="userSpaceOnUse"
       id="clipPath4796"><path
         inkscape:connector-curvature="0"
         d="M 0,0 612,0 612,612 0,612 0,0 z"
         id="path4798" /></clipPath><clipPath
       clipPathUnits="userSpaceOnUse"
       id="clipPath8003"><path
         inkscape:connector-curvature="0"
         d="M 0,0 612,0 612,612 0,612 0,0 z"
         id="path8005" /></clipPath></defs><sodipodi:namedview
     pagecolor="#ffffff"
     bordercolor="#666666"
     borderopacity="1"
     objecttolerance="10"
     gridtolerance="10"
     guidetolerance="10"
     inkscape:pageopacity="0"
     inkscape:pageshadow="2"
     inkscape:window-width="1148"
     inkscape:window-height="902"
     id="namedview3025"
     showgrid="false"
     inkscape:zoom="0.86774744"
     inkscape:cx="465.07432"
     inkscape:cy="343.13408"
     inkscape:window-x="207"
     inkscape:window-y="0"
     inkscape:window-maximized="0"
     inkscape:current-layer="g3049"><inkscape:grid
       type="xygrid"
       id="grid3182"
       empspacing="5"
       visible="true"
       enabled="true"
       snapvisiblegridlinesonly="true" /></sodipodi:namedview><g
     id="g3031"
     inkscape:groupmode="layer"
     inkscape:label="tech_girls_v2"
     transform="matrix(1.25,0,0,-1.25,0,765)"><g
       transform="matrix(7.5665271,0,0,7.5574515,-1232.0975,-2946.0588)"
       clip-path="url(#clipPath3051)"
       id="g3049"><g
         transform="matrix(0.85859344,0,0,0.85962451,-165.19167,132.73562)"
         id="g3175"
         inkscape:export-filename="/Users/tom/temp/blue-dot-white-text-600dpi.png"
         inkscape:export-xdpi="600.02264"
         inkscape:export-ydpi="600.02264"><g
           transform="translate(438.8115,333.0605)"
           id="g68"><path
             inkscape:connector-curvature="0"
             id="path70"
             style="fill:#6ec9c4;fill-opacity:1;fill-rule:nonzero;stroke:none"
             d="m 0,0 c 0,-0.795 -0.646,-1.439 -1.44,-1.439 l -14.12,0 C -16.354,-1.439 -17,-0.795 -17,0 l 0,2.121 c 0,0.795 0.646,1.44 1.44,1.44 l 14.12,0 C -0.646,3.561 0,2.916 0,2.121 L 0,0 z" /></g><g
           transform="translate(423.3193,345.6211)"
           id="g72"><path
             inkscape:connector-curvature="0"
             id="path74"
             style="fill:#6badaa;fill-opacity:1;fill-rule:nonzero;stroke:none"
             d="M 0,0 13.991,-0.009 13.987,-2 13.983,-2 -0.009,-1.991 0,0 z m 15.089,-3.665 c 0.543,0.359 0.902,0.975 0.902,1.674 l 0,1.982 C 15.991,1.099 15.091,2 13.983,2 L 0,2 C -1.106,2 -2.009,1.099 -2.009,-0.009 l 0,-1.982 c 0,-0.699 0.361,-1.315 0.904,-1.674 l -3.553,-7.408 c 0,-0.558 0.451,-0.927 1.009,-0.927 l 21.285,0 c 0.554,0 1.006,0.369 1.006,0.927 l -3.553,7.408 z" /></g><g
           transform="translate(423.3193,345.6211)"
           id="g76"><path
             inkscape:connector-curvature="0"
             id="path78"
             style="fill:#ffffff;fill-opacity:1;fill-rule:nonzero;stroke:none"
             d="M 0,0 13.991,-0.009 13.987,-2 13.983,-2 -0.009,-1.991 0,0 z" /></g><g
           transform="translate(455.875,362.5137)"
           id="g80"><path
             inkscape:connector-curvature="0"
             id="path82"
             style="fill:#6ec9c4;fill-opacity:1;fill-rule:nonzero;stroke:none"
             d="M 0,0 C -0.582,2.303 -2.921,3.698 -5.223,3.117 -5.909,2.943 -6.501,2.601 -6.998,2.163 l -4.985,2.227 -1.607,6.359 c -0.533,2.116 -2.833,3.54 -5.082,2.972 L -45.141,7.034 c -2.25,-0.567 -3.595,-2.913 -3.061,-5.03 l 1.608,-6.367 -3.32,-4.316 c -0.645,0.15 -1.328,0.17 -2.014,-0.003 -2.302,-0.582 -3.697,-2.921 -3.116,-5.222 0.582,-2.304 2.92,-3.699 5.222,-3.117 2.304,0.582 3.698,2.919 3.117,5.222 -0.025,0.097 -0.07,0.182 -0.101,0.276 l 1.523,1.976 1.275,-5.049 c 0.535,-2.115 2.791,-3.37 5.04,-2.802 l 26.468,6.686 c 2.25,0.568 3.639,2.745 3.104,4.86 l -1.278,5.058 2.292,-1.023 c 0.018,-0.096 0.019,-0.192 0.043,-0.288 0.581,-2.303 2.918,-3.699 5.224,-3.117 C -0.813,-4.641 0.58,-2.303 0,0" /></g><g
           transform="translate(417.7871,357.4961)"
           id="g84"><path
             inkscape:connector-curvature="0"
             id="path86"
             style="fill:#ffffff;fill-opacity:1;fill-rule:nonzero;stroke:none"
             d="m 0,0 c -0.342,-0.573 -0.519,-1.199 -0.543,-1.822 l -2.203,-1.05 2.496,-0.587 C 0.057,-4.206 0.596,-4.865 1.344,-5.312 3.18,-6.407 5.557,-5.807 6.652,-3.969 7.75,-2.132 7.147,0.246 5.312,1.342 3.475,2.438 1.098,1.836 0,0" /></g><g
           transform="translate(437.9023,362.5781)"
           id="g88"><path
             inkscape:connector-curvature="0"
             id="path90"
             style="fill:#ffffff;fill-opacity:1;fill-rule:nonzero;stroke:none"
             d="M 0,0 C 0.573,-0.344 1.025,-0.81 1.344,-1.346 L 3.78,-1.226 1.862,-2.924 C 1.947,-3.729 1.787,-4.564 1.342,-5.312 0.246,-7.148 -2.133,-7.748 -3.97,-6.652 -5.808,-5.558 -6.406,-3.18 -5.312,-1.343 -4.215,0.495 -1.836,1.096 0,0" /></g></g><g
         id="g164"
         transform="matrix(0.53710961,0,0,0.53775461,178.64332,414.93214)"
         inkscape:export-filename="/Users/tom/temp/blue-dot-white-text-600dpi.png"
         inkscape:export-xdpi="600.02264"
         inkscape:export-ydpi="600.02264"><path
           inkscape:connector-curvature="0"
           d="m 0,0 0,-0.504 2.844,0 0,-20.481 0.575,0 0,20.481 2.772,0 L 6.191,0 0,0 z"
           style="fill:#4d4c4e;fill-opacity:1;fill-rule:nonzero;stroke:none"
           id="path166" /></g><g
         id="g168"
         transform="matrix(0.53710961,0,0,0.53775461,187.23916,409.45375)"
         inkscape:export-filename="/Users/tom/temp/blue-dot-white-text-600dpi.png"
         inkscape:export-xdpi="600.02264"
         inkscape:export-ydpi="600.02264"><path
           inkscape:connector-curvature="0"
           d="m 0,0 -5.398,0 0,-7.774 c 0,-1.584 0.863,-2.736 2.447,-2.736 1.513,0 2.375,1.008 2.375,2.664 l 0,2.916 0.576,0 0,-2.916 c 0,-1.908 -1.115,-3.24 -2.951,-3.24 -1.764,0 -3.024,1.404 -3.024,3.312 l 0,15.045 c 0,1.944 1.153,3.276 3.024,3.276 C -1.115,10.547 0,9.252 0,7.308 L 0,0 z m -0.576,7.308 c 0,1.655 -0.791,2.7 -2.375,2.7 -1.44,0 -2.447,-1.154 -2.447,-2.737 l 0,-6.73 4.822,0 0,6.767 z"
           style="fill:#4d4c4e;fill-opacity:1;fill-rule:nonzero;stroke:none"
           id="path170" /></g><g
         id="g172"
         transform="matrix(0.53710961,0,0,0.53775461,192.51797,413.38345)"
         inkscape:export-filename="/Users/tom/temp/blue-dot-white-text-600dpi.png"
         inkscape:export-xdpi="600.02264"
         inkscape:export-ydpi="600.02264"><path
           inkscape:connector-curvature="0"
           d="m 0,0 c 0,1.655 -0.791,2.7 -2.375,2.7 -1.439,0 -2.447,-1.152 -2.447,-2.736 l 0,-15.046 c 0,-1.584 0.863,-2.736 2.447,-2.736 1.512,0 2.375,1.008 2.375,2.664 l 0,2.699 0.576,0 0,-2.699 c 0,-1.908 -1.115,-3.24 -2.951,-3.24 -1.764,0 -3.023,1.404 -3.023,3.312 l 0,15.046 c 0,1.943 1.15,3.275 3.023,3.275 1.836,0 2.951,-1.295 2.951,-3.239 l 0,-2.7 L 0,-2.7 0,0 z"
           style="fill:#4d4c4e;fill-opacity:1;fill-rule:nonzero;stroke:none"
           id="path174" /></g><g
         id="g176"
         transform="matrix(0.53710961,0,0,0.53775461,198.26254,414.97103)"
         inkscape:export-filename="/Users/tom/temp/blue-dot-white-text-600dpi.png"
         inkscape:export-xdpi="600.02264"
         inkscape:export-ydpi="600.02264"><path
           inkscape:connector-curvature="0"
           d="m 0,0 0,-10.475 -5.219,0 0,10.475 -0.576,0 0,-21.057 0.576,0 0,10.006 5.219,0 0,-10.006 0.576,0 L 0.576,0 0,0 z"
           style="fill:#4d4c4e;fill-opacity:1;fill-rule:nonzero;stroke:none"
           id="path178" /></g><path
         inkscape:connector-curvature="0"
         d="m 200.81038,408.69898 1.68276,0 0,0.30968 -1.68276,0 0,-0.30968 z"
         style="fill:#4d4c4e;fill-opacity:1;fill-rule:nonzero;stroke:none"
         id="path180"
         inkscape:export-filename="/Users/tom/temp/blue-dot-white-text-600dpi.png"
         inkscape:export-xdpi="600.02264"
         inkscape:export-ydpi="600.02264" /><g
         id="g182"
         transform="matrix(0.53710961,0,0,0.53775461,206.38736,415.25983)"
         inkscape:export-filename="/Users/tom/temp/blue-dot-white-text-600dpi.png"
         inkscape:export-xdpi="600.02264"
         inkscape:export-ydpi="600.02264"><path
           inkscape:connector-curvature="0"
           d="m 0,0 c -2.012,0 -3.418,-1.449 -3.418,-3.525 l 0,-15.046 c 0,-2.031 1.469,-3.562 3.418,-3.562 1.937,0 3.345,1.468 3.345,3.49 l 0,7.413 -2.587,0 0,-1.04 1.512,0 0,-6.373 c 0,-1.488 -0.87,-2.414 -2.27,-2.414 -1.4,0 -2.342,1 -2.342,2.486 l 0,15.046 c 0,1.463 0.963,2.486 2.342,2.486 1.422,0 2.27,-0.916 2.27,-2.45 l 0,-2.447 1.075,0 0,2.447 C 3.345,-1.402 2,0 0,0"
           style="fill:#4d4c4e;fill-opacity:1;fill-rule:nonzero;stroke:none"
           id="path184" /></g><path
         inkscape:connector-curvature="0"
         d="m 210.28499,403.51179 0.57737,0 0,11.59344 -0.57737,0 0,-11.59344 z"
         style="fill:#4d4c4e;fill-opacity:1;fill-rule:nonzero;stroke:none"
         id="path186"
         inkscape:export-filename="/Users/tom/temp/blue-dot-white-text-600dpi.png"
         inkscape:export-xdpi="600.02264"
         inkscape:export-ydpi="600.02264" /><g
         id="g188"
         transform="matrix(0.53710961,0,0,0.53775461,213.61841,414.58446)"
         inkscape:export-filename="/Users/tom/temp/blue-dot-white-text-600dpi.png"
         inkscape:export-xdpi="600.02264"
         inkscape:export-ydpi="600.02264"><path
           inkscape:connector-curvature="0"
           d="m 0,0 2.448,0 c 1.562,0 1.73,-1.486 1.73,-2.125 l 0,-5.436 c 0,-1.47 -0.699,-2.126 -2.27,-2.126 L 0,-9.687 0,0 z m 5.326,-17.928 0,5.04 c 0,1.294 -0.505,2.208 -1.469,2.678 0.948,0.496 1.362,1.321 1.362,2.649 l 0,5.436 c 0,1.93 -1.063,3.129 -2.771,3.129 l -3.524,0 0,-21.592 1.076,0 0,9.898 1.908,0 c 1.488,0 2.342,-0.801 2.342,-2.198 l 0,-5.04 c 0,-0.84 0.078,-1.713 0.221,-2.457 l 0.039,-0.203 1.073,0 -0.044,0.287 c -0.079,0.529 -0.213,1.541 -0.213,2.373"
           style="fill:#4d4c4e;fill-opacity:1;fill-rule:nonzero;stroke:none"
           id="path190" /></g><g
         id="g192"
         transform="matrix(0.53710961,0,0,0.53775461,219.24652,415.10548)"
         inkscape:export-filename="/Users/tom/temp/blue-dot-white-text-600dpi.png"
         inkscape:export-xdpi="600.02264"
         inkscape:export-ydpi="600.02264"><path
           inkscape:connector-curvature="0"
           d="m 0,0 -1.076,0 0,-21.557 5.035,0 0,1.074 -3.959,0 L 0,0 z"
           style="fill:#4d4c4e;fill-opacity:1;fill-rule:nonzero;stroke:none"
           id="path194" /></g><g
         id="g196"
         transform="matrix(0.53710961,0,0,0.53775461,226.19955,412.4944)"
         inkscape:export-filename="/Users/tom/temp/blue-dot-white-text-600dpi.png"
         inkscape:export-xdpi="600.02264"
         inkscape:export-ydpi="600.02264"><path
           inkscape:connector-curvature="0"
           d="m 0,0 0,1.617 c 0,2.174 -1.258,3.634 -3.129,3.634 -2.12,0 -3.49,-1.511 -3.49,-3.85 0,-2.779 1.31,-4.954 2.699,-7.255 l 0.214,-0.358 c 1.438,-2.466 2.63,-4.699 2.63,-7.037 0,-1.808 -0.867,-2.845 -2.378,-2.845 -1.532,0 -2.377,0.959 -2.377,2.701 l 0,1.437 -1.076,0 0,-1.437 c 0,-2.274 1.355,-3.742 3.453,-3.742 2.034,0 3.454,1.599 3.454,3.886 0,2.645 -1.271,4.997 -2.808,7.58 l -0.216,0.361 c -1.522,2.496 -2.519,4.312 -2.519,6.709 0,1.76 0.902,2.811 2.414,2.811 1.266,0 2.053,-0.994 2.053,-2.595 L -1.076,0 0,0 z"
           style="fill:#4d4c4e;fill-opacity:1;fill-rule:nonzero;stroke:none"
           id="path198" /></g></g></g></svg>