<?xml version="1.0" encoding="UTF-8" standalone="no"?>
<!-- Created with Inkscape (http://www.inkscape.org/) -->

<svg
   xmlns:dc="http://purl.org/dc/elements/1.1/"
   xmlns:cc="http://creativecommons.org/ns#"
   xmlns:rdf="http://www.w3.org/1999/02/22-rdf-syntax-ns#"
   xmlns:svg="http://www.w3.org/2000/svg"
   xmlns="http://www.w3.org/2000/svg"
   xmlns:sodipodi="http://sodipodi.sourceforge.net/DTD/sodipodi-0.dtd"
   xmlns:inkscape="http://www.inkscape.org/namespaces/inkscape"
   id="svg3023"
   version="1.1"
   inkscape:version="0.48.2 r9819"
   width="765"
   height="765"
   xml:space="preserve"
   sodipodi:docname="tech-girl-logo-white-text.svg"><metadata
     id="metadata3029"><rdf:RDF><cc:Work
         rdf:about=""><dc:format>image/svg+xml</dc:format><dc:type
           rdf:resource="http://purl.org/dc/dcmitype/StillImage" /><dc:title></dc:title></cc:Work></rdf:RDF></metadata><defs
     id="defs3027"><clipPath
       clipPathUnits="userSpaceOnUse"
       id="clipPath3051"><path
         d="M 0,0 612,0 612,612 0,612 0,0 z"
         id="path3053" /></clipPath><clipPath
       clipPathUnits="userSpaceOnUse"
       id="clipPath3107"><path
         d="M 0,0 612,0 612,612 0,612 0,0 z"
         id="path3109" /></clipPath><clipPath
       clipPathUnits="userSpaceOnUse"
       id="clipPath3125"><path
         d="M 0,0 612,0 612,612 0,612 0,0 z"
         id="path3127" /></clipPath><clipPath
       clipPathUnits="userSpaceOnUse"
       id="clipPath3139"><path
         d="M 0,0 612,0 612,612 0,612 0,0 z"
         id="path3141" /></clipPath><clipPath
       clipPathUnits="userSpaceOnUse"
       id="clipPath3155"><path
         d="M 0,0 612,0 612,612 0,612 0,0 z"
         id="path3157" /></clipPath><clipPath
       clipPathUnits="userSpaceOnUse"
       id="clipPath3215"><path
         d="M 0,0 612,0 612,612 0,612 0,0 z"
         id="path3217" /></clipPath><clipPath
       clipPathUnits="userSpaceOnUse"
       id="clipPath3233"><path
         d="M 0,0 612,0 612,612 0,612 0,0 z"
         id="path3235" /></clipPath><clipPath
       clipPathUnits="userSpaceOnUse"
       id="clipPath3247"><path
         d="M 0,0 612,0 612,612 0,612 0,0 z"
         id="path3249" /></clipPath><clipPath
       clipPathUnits="userSpaceOnUse"
       id="clipPath3263"><path
         d="M 0,0 612,0 612,612 0,612 0,0 z"
         id="path3265" /></clipPath><clipPath
       clipPathUnits="userSpaceOnUse"
       id="clipPath3323"><path
         d="M 0,0 612,0 612,612 0,612 0,0 z"
         id="path3325" /></clipPath><clipPath
       clipPathUnits="userSpaceOnUse"
       id="clipPath3341"><path
         d="M 0,0 612,0 612,612 0,612 0,0 z"
         id="path3343" /></clipPath><clipPath
       clipPathUnits="userSpaceOnUse"
       id="clipPath3357"><path
         d="M 0,0 612,0 612,612 0,612 0,0 z"
         id="path3359" /></clipPath><clipPath
       clipPathUnits="userSpaceOnUse"
       id="clipPath3373"><path
         d="M 0,0 612,0 612,612 0,612 0,0 z"
         id="path3375" /></clipPath><clipPath
       clipPathUnits="userSpaceOnUse"
       id="clipPath3429"><path
         d="M 0,0 612,0 612,612 0,612 0,0 z"
         id="path3431" /></clipPath><clipPath
       clipPathUnits="userSpaceOnUse"
       id="clipPath3453"><path
         d="M 0,0 612,0 612,612 0,612 0,0 z"
         id="path3455" /></clipPath><clipPath
       clipPathUnits="userSpaceOnUse"
       id="clipPath3473"><path
         d="M 0,0 612,0 612,612 0,612 0,0 z"
         id="path3475" /></clipPath><clipPath
       clipPathUnits="userSpaceOnUse"
       id="clipPath3497"><path
         d="M 0,0 612,0 612,612 0,612 0,0 z"
         id="path3499" /></clipPath><clipPath
       clipPathUnits="userSpaceOnUse"
       id="clipPath4728"><path
         inkscape:connector-curvature="0"
         d="M 0,0 612,0 612,612 0,612 0,0 z"
         id="path4730" /></clipPath><clipPath
       clipPathUnits="userSpaceOnUse"
       id="clipPath4752"><path
         inkscape:connector-curvature="0"
         d="M 0,0 612,0 612,612 0,612 0,0 z"
         id="path4754" /></clipPath><clipPath
       clipPathUnits="userSpaceOnUse"
       id="clipPath4772"><path
         inkscape:connector-curvature="0"
         d="M 0,0 612,0 612,612 0,612 0,0 z"
         id="path4774" /></clipPath><clipPath
       clipPathUnits="userSpaceOnUse"
       id="clipPath4796"><path
         inkscape:connector-curvature="0"
         d="M 0,0 612,0 612,612 0,612 0,0 z"
         id="path4798" /></clipPath><clipPath
       clipPathUnits="userSpaceOnUse"
       id="clipPath8003"><path
         inkscape:connector-curvature="0"
         d="M 0,0 612,0 612,612 0,612 0,0 z"
         id="path8005" /></clipPath></defs><sodipodi:namedview
     pagecolor="#ffffff"
     bordercolor="#666666"
     borderopacity="1"
     objecttolerance="10"
     gridtolerance="10"
     guidetolerance="10"
     inkscape:pageopacity="0"
     inkscape:pageshadow="2"
     inkscape:window-width="1148"
     inkscape:window-height="902"
     id="namedview3025"
     showgrid="false"
     inkscape:zoom="0.5"
     inkscape:cx="300.52083"
     inkscape:cy="421.57448"
     inkscape:window-x="207"
     inkscape:window-y="0"
     inkscape:window-maximized="0"
     inkscape:current-layer="g3049"><inkscape:grid
       type="xygrid"
       id="grid3182"
       empspacing="5"
       visible="true"
       enabled="true"
       snapvisiblegridlinesonly="true" /></sodipodi:namedview><g
     id="g3031"
     inkscape:groupmode="layer"
     inkscape:label="tech_girls_v2"
     transform="matrix(1.25,0,0,-1.25,0,765)"><g
       transform="matrix(7.5665271,0,0,7.5574515,-1232.0975,-2946.0588)"
       clip-path="url(#clipPath3051)"
       id="g3049"><rect
         style="fill:#000000;fill-opacity:1;stroke:#ffffff;stroke-width:2.56999993;stroke-miterlimit:10;stroke-opacity:1;stroke-dasharray:none"
         id="rect7461"
         width="726"
         height="690"
         x="28"
         y="35.000004"
         transform="matrix(0.10572882,0,0,-0.10585579,162.83527,470.80141)" /><g
         id="g4720"
         transform="matrix(0.51443781,0,0,0.57470989,181.07966,415.31969)"
         style="stroke:#ffffff;stroke-opacity:1;stroke-width:0.00085895000000000;stroke-miterlimit:5.50000000000000000;stroke-dasharray:none;opacity:1;fill:#ffffff"
         inkscape:export-filename="/Users/tom/Documents/home/graphics/tech-girl-logo-white-text-lg.png"
         inkscape:export-xdpi="860.53998"
         inkscape:export-ydpi="860.53998"><path
           d="m 0,0 0,-20.481 -0.576,0 0,20.481 -2.843,0 0,0.504 6.191,0 L 2.772,0 0,0 z"
           style="fill:#ffffff;fill-opacity:1;fill-rule:nonzero;stroke:#ffffff;stroke-opacity:1;stroke-width:0.00085895000000000;stroke-miterlimit:5.50000000000000000;stroke-dasharray:none"
           id="path4722"
           inkscape:connector-curvature="0" /></g><g
         id="g4724"
         transform="matrix(0.51443781,0,0,0.57470989,3.4715891,265.25885)"
         style="stroke:#ffffff;stroke-opacity:1;stroke-width:0.00085895000000000;stroke-miterlimit:5.50000000000000000;stroke-dasharray:none;opacity:1;fill:#ffffff"
         inkscape:export-filename="/Users/tom/Documents/home/graphics/tech-girl-logo-white-text-lg.png"
         inkscape:export-xdpi="860.53998"
         inkscape:export-ydpi="860.53998"><g
           id="g4726"
           clip-path="url(#clipPath4728)"
           style="stroke:#ffffff;stroke-opacity:1;stroke-width:0.00085895000000000;stroke-miterlimit:5.50000000000000000;stroke-dasharray:none;fill:#ffffff"><g
             id="g4732"
             transform="translate(357.8318,251.4235)"
             style="stroke:#ffffff;stroke-opacity:1;stroke-width:0.00085895000000000;stroke-miterlimit:5.50000000000000000;stroke-dasharray:none;fill:#ffffff"><path
               d="m 0,0 -5.399,0 0,-7.774 c 0,-1.584 0.864,-2.736 2.448,-2.736 1.512,0 2.375,1.008 2.375,2.664 l 0,2.915 0.576,0 0,-2.915 c 0,-1.908 -1.116,-3.24 -2.951,-3.24 -1.764,0 -3.024,1.404 -3.024,3.312 l 0,15.045 c 0,1.944 1.152,3.276 3.024,3.276 C -1.116,10.547 0,9.252 0,7.308 L 0,0 z m -0.576,7.308 c 0,1.655 -0.792,2.7 -2.375,2.7 -1.44,0 -2.448,-1.153 -2.448,-2.737 l 0,-6.73 4.823,0 0,6.767 z"
               style="fill:#ffffff;fill-opacity:1;fill-rule:nonzero;stroke:#ffffff;stroke-opacity:1;stroke-width:0.00085895000000000;stroke-miterlimit:5.50000000000000000;stroke-dasharray:none"
               id="path4734"
               inkscape:connector-curvature="0" /></g><g
             id="g4736"
             transform="translate(367.6599,258.7311)"
             style="stroke:#ffffff;stroke-opacity:1;stroke-width:0.00085895000000000;stroke-miterlimit:5.50000000000000000;stroke-dasharray:none;fill:#ffffff"><path
               d="m 0,0 c 0,1.655 -0.792,2.7 -2.375,2.7 -1.44,0 -2.448,-1.152 -2.448,-2.736 l 0,-15.046 c 0,-1.584 0.864,-2.735 2.448,-2.735 1.511,0 2.375,1.007 2.375,2.664 l 0,2.699 0.576,0 0,-2.699 c 0,-1.909 -1.116,-3.241 -2.951,-3.241 -1.764,0 -3.024,1.405 -3.024,3.312 l 0,15.046 c 0,1.943 1.152,3.275 3.024,3.275 1.835,0 2.951,-1.295 2.951,-3.239 l 0,-2.7 L 0,-2.7 0,0 z"
               style="fill:#ffffff;fill-opacity:1;fill-rule:nonzero;stroke:#ffffff;stroke-opacity:1;stroke-width:0.00085895000000000;stroke-miterlimit:5.50000000000000000;stroke-dasharray:none"
               id="path4738"
               inkscape:connector-curvature="0" /></g></g></g><g
         id="g4740"
         transform="matrix(0.51443781,0,0,0.57470989,198.40793,403.54876)"
         style="stroke:#ffffff;stroke-opacity:1;stroke-width:0.00085895000000000;stroke-miterlimit:5.50000000000000000;stroke-dasharray:none;opacity:1;fill:#ffffff"
         inkscape:export-filename="/Users/tom/Documents/home/graphics/tech-girl-logo-white-text-lg.png"
         inkscape:export-xdpi="860.53998"
         inkscape:export-ydpi="860.53998"><path
           d="m 0,0 -0.576,0 0,10.007 -5.219,0 0,-10.007 -0.576,0 0,21.058 0.576,0 0,-10.475 5.219,0 0,10.475 0.576,0 L 0,0 z"
           style="fill:#ffffff;fill-opacity:1;fill-rule:nonzero;stroke:#ffffff;stroke-opacity:1;stroke-width:0.00085895000000000;stroke-miterlimit:5.50000000000000000;stroke-dasharray:none"
           id="path4742"
           inkscape:connector-curvature="0" /></g><path
         d="m 200.55221,408.94782 1.61122,0 0,0.33103 -1.61122,0 0,-0.33103 z"
         style="fill:#ffffff;fill-opacity:1;fill-rule:nonzero;stroke:none"
         id="path4744"
         inkscape:connector-curvature="0"
         inkscape:export-filename="/Users/tom/Documents/home/graphics/tech-girl-logo-white-text-lg.png"
         inkscape:export-xdpi="860.53998"
         inkscape:export-ydpi="860.53998" /><path
         d="m 202.16394,408.94782 -1.61122,0 0,0.33103 1.61122,0 0,-0.33103 z"
         style="fill:#ffffff;stroke:#ffffff;stroke-width:0.00002041000000000;stroke-linecap:butt;stroke-linejoin:miter;stroke-miterlimit:5.50000000000000000;stroke-opacity:1;stroke-dasharray:none;opacity:1"
         id="path4746"
         inkscape:connector-curvature="0"
         inkscape:export-filename="/Users/tom/Documents/home/graphics/tech-girl-logo-white-text-lg.png"
         inkscape:export-xdpi="860.53998"
         inkscape:export-ydpi="860.53998" /><g
         id="g4748"
         transform="matrix(0.51443781,0,0,0.57470989,3.4715891,265.25885)"
         style="fill:#ffffff;stroke-width:0.50003034000000002;stroke-miterlimit:10;stroke-dasharray:none;opacity:1;stroke:#ffffff;stroke-opacity:1"
         inkscape:export-filename="/Users/tom/Documents/home/graphics/tech-girl-logo-white-text-lg.png"
         inkscape:export-xdpi="860.53998"
         inkscape:export-ydpi="860.53998"><g
           id="g4750"
           clip-path="url(#clipPath4752)"
           style="fill:#ffffff;stroke-width:0.50003034000000002;stroke-miterlimit:10;stroke-dasharray:none;stroke:#ffffff;stroke-opacity:1"><g
             id="g4756"
             transform="translate(394.4894,250.2008)"
             style="fill:#ffffff;stroke-width:0.50003034000000002;stroke-miterlimit:10;stroke-dasharray:none;stroke:#ffffff;stroke-opacity:1"><path
               d="m 0,0 0,0.539 2.087,0 0,-7.162 c 0,-1.908 -1.295,-3.24 -3.095,-3.24 -1.764,0 -3.168,1.404 -3.168,3.311 l 0,15.046 c 0,1.944 1.296,3.276 3.168,3.276 1.836,0 3.095,-1.295 3.095,-3.24 l 0,-2.196 -0.575,0 0,2.196 c 0,1.693 -0.972,2.7 -2.52,2.7 -1.584,0 -2.592,-1.224 -2.592,-2.736 l 0,-15.046 c 0,-1.584 1.008,-2.735 2.592,-2.735 1.512,0 2.52,1.008 2.52,2.664 L 1.512,0 0,0 z"
               style="fill:#ffffff;fill-opacity:1;fill-rule:nonzero;stroke:#ffffff;stroke-width:0.50003034000000002;stroke-miterlimit:10;stroke-dasharray:none;stroke-opacity:1"
               id="path4758"
               inkscape:connector-curvature="0" /></g><g
             id="g4760"
             transform="translate(394.4894,250.2008)"
             style="fill:#ffffff;stroke-width:0.50003034000000002;stroke-miterlimit:10;stroke-dasharray:none;stroke:#ffffff;stroke-opacity:1"><path
               d="m 0,0 0,0.539 2.087,0 0,-7.162 c 0,-1.908 -1.295,-3.24 -3.095,-3.24 -1.764,0 -3.168,1.404 -3.168,3.311 l 0,15.046 c 0,1.944 1.296,3.276 3.168,3.276 1.836,0 3.095,-1.295 3.095,-3.24 l 0,-2.196 -0.575,0 0,2.196 c 0,1.693 -0.972,2.7 -2.52,2.7 -1.584,0 -2.592,-1.224 -2.592,-2.736 l 0,-15.046 c 0,-1.584 1.008,-2.735 2.592,-2.735 1.512,0 2.52,1.008 2.52,2.664 L 1.512,0 0,0 z"
               style="fill:#ffffff;stroke:#ffffff;stroke-width:0.50003034000000002;stroke-linecap:butt;stroke-linejoin:miter;stroke-miterlimit:10;stroke-opacity:1;stroke-dasharray:none"
               id="path4762"
               inkscape:connector-curvature="0" /></g></g></g><path
         d="m 209.75498,403.549 0.29632,0 0,12.10166 -0.29632,0 0,-12.10166 z"
         style="fill:#ffffff;fill-opacity:1;fill-rule:nonzero;stroke:none;stroke-width:0.27188617999999998;stroke-miterlimit:10;stroke-dasharray:none;opacity:1"
         id="path4764"
         inkscape:connector-curvature="0"
         inkscape:export-filename="/Users/tom/Documents/home/graphics/tech-girl-logo-white-text-lg.png"
         inkscape:export-xdpi="860.53998"
         inkscape:export-ydpi="860.53998" /><path
         d="m 209.75498,415.65066 0.29632,0 0,-12.10224 -0.29632,0 0,12.10224 z"
         style="fill:#ffffff;stroke:#ffffff;stroke-width:0.27188617999999998;stroke-linecap:butt;stroke-linejoin:miter;stroke-miterlimit:10;stroke-opacity:1;stroke-dasharray:none;opacity:1"
         id="path4766"
         inkscape:connector-curvature="0"
         inkscape:export-filename="/Users/tom/Documents/home/graphics/tech-girl-logo-white-text-lg.png"
         inkscape:export-xdpi="860.53998"
         inkscape:export-ydpi="860.53998" /><g
         id="g4768"
         transform="matrix(0.51443781,0,0,0.57470989,3.4715891,265.25885)"
         style="fill:#ffffff;stroke-width:0.50003034000000002;stroke-miterlimit:10;stroke-dasharray:none;opacity:1;stroke:#ffffff;stroke-opacity:1"
         inkscape:export-filename="/Users/tom/Documents/home/graphics/tech-girl-logo-white-text-lg.png"
         inkscape:export-xdpi="860.53998"
         inkscape:export-ydpi="860.53998"><g
           id="g4770"
           clip-path="url(#clipPath4772)"
           style="fill:#ffffff;stroke-width:0.50003034000000002;stroke-miterlimit:10;stroke-dasharray:none;stroke:#ffffff;stroke-opacity:1"><g
             id="g4776"
             transform="translate(411.6609,240.6256)"
             style="fill:#ffffff;stroke-width:0.50003034000000002;stroke-miterlimit:10;stroke-dasharray:none;stroke:#ffffff;stroke-opacity:1"><path
               d="m 0,0 c -0.144,0.756 -0.216,1.62 -0.216,2.411 l 0,5.04 c 0,1.583 -1.008,2.447 -2.592,2.447 l -2.159,0 0,-9.898 -0.576,0 0,21.093 3.275,0 c 1.764,0 2.52,-1.332 2.52,-2.879 l 0,-5.436 c 0,-1.404 -0.468,-2.232 -1.8,-2.664 C 0,9.719 0.36,8.495 0.36,7.451 l 0,-5.04 C 0.36,1.655 0.468,0.72 0.576,0 L 0,0 z m -0.288,12.778 0,5.436 c 0,1.332 -0.612,2.375 -1.98,2.375 l -2.699,0 0,-10.187 2.159,0 c 1.728,0 2.52,0.792 2.52,2.376"
               style="fill:#ffffff;fill-opacity:1;fill-rule:nonzero;stroke:#ffffff;stroke-width:0.50003034000000002;stroke-miterlimit:10;stroke-dasharray:none;stroke-opacity:1"
               id="path4778"
               inkscape:connector-curvature="0" /></g><g
             id="g4780"
             transform="translate(411.6609,240.6256)"
             style="fill:#ffffff;stroke-width:0.50003034000000002;stroke-miterlimit:10;stroke-dasharray:none;stroke:#ffffff;stroke-opacity:1"><path
               d="m 0,0 c -0.144,0.756 -0.216,1.62 -0.216,2.411 l 0,5.04 c 0,1.583 -1.008,2.447 -2.592,2.447 l -2.159,0 0,-9.898 -0.576,0 0,21.093 3.275,0 c 1.764,0 2.52,-1.332 2.52,-2.879 l 0,-5.436 c 0,-1.404 -0.468,-2.232 -1.8,-2.664 C 0,9.719 0.36,8.495 0.36,7.451 l 0,-5.04 C 0.36,1.655 0.468,0.72 0.576,0 L 0,0 z m -0.288,12.778 0,5.436 c 0,1.332 -0.612,2.375 -1.98,2.375 l -2.699,0 0,-10.187 2.159,0 c 1.728,0 2.52,0.792 2.52,2.376 z"
               style="fill:#ffffff;stroke:#ffffff;stroke-width:0.50003034000000002;stroke-linecap:butt;stroke-linejoin:miter;stroke-miterlimit:10;stroke-opacity:1;stroke-dasharray:none"
               id="path4782"
               inkscape:connector-curvature="0" /></g></g></g><g
         id="g4784"
         transform="matrix(0.51443781,0,0,0.57470989,220.11813,403.54876)"
         style="fill:#ffffff;stroke-width:0.50003034000000002;stroke-miterlimit:10;stroke-dasharray:none;opacity:1"
         inkscape:export-filename="/Users/tom/Documents/home/graphics/tech-girl-logo-white-text-lg.png"
         inkscape:export-xdpi="860.53998"
         inkscape:export-ydpi="860.53998"><path
           d="m 0,0 -4.535,0 0,21.058 0.575,0 0,-20.483 3.96,0 L 0,0 z"
           style="fill:#ffffff;fill-opacity:1;fill-rule:nonzero;stroke:none;stroke-width:0.50003034000000002;stroke-miterlimit:10;stroke-dasharray:none"
           id="path4786"
           inkscape:connector-curvature="0" /></g><g
         id="g4788"
         transform="matrix(0.51443781,0,0,0.57470989,220.11813,403.54876)"
         style="fill:#ffffff;stroke-width:0.50003034000000002;stroke-miterlimit:10;stroke-dasharray:none;opacity:1;stroke:#ffffff;stroke-opacity:1"
         inkscape:export-filename="/Users/tom/Documents/home/graphics/tech-girl-logo-white-text-lg.png"
         inkscape:export-xdpi="860.53998"
         inkscape:export-ydpi="860.53998"><path
           d="m 0,0 -4.535,0 0,21.058 0.575,0 0,-20.483 3.96,0 L 0,0 z"
           style="fill:#ffffff;stroke:#ffffff;stroke-width:0.50003034000000002;stroke-linecap:butt;stroke-linejoin:miter;stroke-miterlimit:10;stroke-opacity:1;stroke-dasharray:none"
           id="path4790"
           inkscape:connector-curvature="0" /></g><g
         id="g4792"
         transform="matrix(0.51443781,0,0,0.57470989,3.4715891,265.25885)"
         style="fill:#ffffff;stroke-width:0.50003034000000002;stroke-miterlimit:10;stroke-dasharray:none;opacity:1;stroke:#ffffff;stroke-opacity:1"
         inkscape:export-filename="/Users/tom/Documents/home/graphics/tech-girl-logo-white-text-lg.png"
         inkscape:export-xdpi="860.53998"
         inkscape:export-ydpi="860.53998"><g
           id="g4794"
           clip-path="url(#clipPath4796)"
           style="fill:#ffffff;stroke-width:0.50003034000000002;stroke-miterlimit:10;stroke-dasharray:none;stroke:#ffffff;stroke-opacity:1"><g
             id="g4800"
             transform="translate(425.2874,243.6852)"
             style="fill:#ffffff;stroke-width:0.50003034000000002;stroke-miterlimit:10;stroke-dasharray:none;stroke:#ffffff;stroke-opacity:1"><path
               d="m 0,0 c 0,-1.836 0.935,-2.951 2.627,-2.951 1.656,0 2.628,1.151 2.628,3.096 0,2.375 -1.152,4.57 -2.664,7.162 l -0.216,0.36 c -1.367,2.268 -2.663,4.427 -2.663,7.127 0,2.196 1.26,3.6 3.24,3.6 1.691,0 2.879,-1.332 2.879,-3.384 l 0,-1.367 -0.576,0 0,1.367 c 0,1.728 -0.9,2.844 -2.303,2.844 -1.692,0 -2.664,-1.188 -2.664,-3.06 0,-2.556 1.151,-4.535 2.555,-6.839 L 3.06,7.595 c 1.583,-2.663 2.771,-4.931 2.771,-7.45 0,-2.161 -1.296,-3.637 -3.204,-3.637 -1.979,0 -3.203,1.404 -3.203,3.492 l 0,1.187 L 0,1.187 0,0 z"
               style="fill:#ffffff;fill-opacity:1;fill-rule:nonzero;stroke:#ffffff;stroke-width:0.50003034000000002;stroke-miterlimit:10;stroke-dasharray:none;stroke-opacity:1"
               id="path4802"
               inkscape:connector-curvature="0" /></g><g
             id="g4804"
             transform="translate(425.2874,243.6852)"
             style="fill:#ffffff;stroke-width:0.50003034000000002;stroke-miterlimit:10;stroke-dasharray:none;stroke:#ffffff;stroke-opacity:1"><path
               d="m 0,0 c 0,-1.836 0.935,-2.951 2.627,-2.951 1.656,0 2.628,1.151 2.628,3.096 0,2.375 -1.152,4.57 -2.664,7.162 l -0.216,0.36 c -1.367,2.268 -2.663,4.427 -2.663,7.127 0,2.196 1.26,3.6 3.24,3.6 1.691,0 2.879,-1.332 2.879,-3.384 l 0,-1.367 -0.576,0 0,1.367 c 0,1.728 -0.9,2.844 -2.303,2.844 -1.692,0 -2.664,-1.188 -2.664,-3.06 0,-2.556 1.151,-4.535 2.555,-6.839 L 3.06,7.595 c 1.583,-2.663 2.771,-4.931 2.771,-7.45 0,-2.161 -1.296,-3.637 -3.204,-3.637 -1.979,0 -3.203,1.404 -3.203,3.492 l 0,1.187 L 0,1.187 0,0 z"
               style="fill:#ffffff;stroke:#ffffff;stroke-width:0.50003034000000002;stroke-linecap:butt;stroke-linejoin:miter;stroke-miterlimit:10;stroke-opacity:1;stroke-dasharray:none"
               id="path4806"
               inkscape:connector-curvature="0" /></g></g></g><g
         transform="matrix(0.85859344,0,0,0.85962451,-165.19167,132.73562)"
         id="g3175"><g
           transform="translate(438.8115,333.0605)"
           id="g68"><path
             inkscape:connector-curvature="0"
             id="path70"
             style="fill:#6ec9c4;fill-opacity:1;fill-rule:nonzero;stroke:none"
             d="m 0,0 c 0,-0.795 -0.646,-1.439 -1.44,-1.439 l -14.12,0 C -16.354,-1.439 -17,-0.795 -17,0 l 0,2.121 c 0,0.795 0.646,1.44 1.44,1.44 l 14.12,0 C -0.646,3.561 0,2.916 0,2.121 L 0,0 z" /></g><g
           transform="translate(423.3193,345.6211)"
           id="g72"><path
             inkscape:connector-curvature="0"
             id="path74"
             style="fill:#6badaa;fill-opacity:1;fill-rule:nonzero;stroke:none"
             d="M 0,0 13.991,-0.009 13.987,-2 13.983,-2 -0.009,-1.991 0,0 z m 15.089,-3.665 c 0.543,0.359 0.902,0.975 0.902,1.674 l 0,1.982 C 15.991,1.099 15.091,2 13.983,2 L 0,2 C -1.106,2 -2.009,1.099 -2.009,-0.009 l 0,-1.982 c 0,-0.699 0.361,-1.315 0.904,-1.674 l -3.553,-7.408 c 0,-0.558 0.451,-0.927 1.009,-0.927 l 21.285,0 c 0.554,0 1.006,0.369 1.006,0.927 l -3.553,7.408 z" /></g><g
           transform="translate(423.3193,345.6211)"
           id="g76"><path
             inkscape:connector-curvature="0"
             id="path78"
             style="fill:#ffffff;fill-opacity:1;fill-rule:nonzero;stroke:none"
             d="M 0,0 13.991,-0.009 13.987,-2 13.983,-2 -0.009,-1.991 0,0 z" /></g><g
           transform="translate(455.875,362.5137)"
           id="g80"><path
             inkscape:connector-curvature="0"
             id="path82"
             style="fill:#6ec9c4;fill-opacity:1;fill-rule:nonzero;stroke:none"
             d="M 0,0 C -0.582,2.303 -2.921,3.698 -5.223,3.117 -5.909,2.943 -6.501,2.601 -6.998,2.163 l -4.985,2.227 -1.607,6.359 c -0.533,2.116 -2.833,3.54 -5.082,2.972 L -45.141,7.034 c -2.25,-0.567 -3.595,-2.913 -3.061,-5.03 l 1.608,-6.367 -3.32,-4.316 c -0.645,0.15 -1.328,0.17 -2.014,-0.003 -2.302,-0.582 -3.697,-2.921 -3.116,-5.222 0.582,-2.304 2.92,-3.699 5.222,-3.117 2.304,0.582 3.698,2.919 3.117,5.222 -0.025,0.097 -0.07,0.182 -0.101,0.276 l 1.523,1.976 1.275,-5.049 c 0.535,-2.115 2.791,-3.37 5.04,-2.802 l 26.468,6.686 c 2.25,0.568 3.639,2.745 3.104,4.86 l -1.278,5.058 2.292,-1.023 c 0.018,-0.096 0.019,-0.192 0.043,-0.288 0.581,-2.303 2.918,-3.699 5.224,-3.117 C -0.813,-4.641 0.58,-2.303 0,0" /></g><g
           transform="translate(417.7871,357.4961)"
           id="g84"><path
             inkscape:connector-curvature="0"
             id="path86"
             style="fill:#ffffff;fill-opacity:1;fill-rule:nonzero;stroke:none"
             d="m 0,0 c -0.342,-0.573 -0.519,-1.199 -0.543,-1.822 l -2.203,-1.05 2.496,-0.587 C 0.057,-4.206 0.596,-4.865 1.344,-5.312 3.18,-6.407 5.557,-5.807 6.652,-3.969 7.75,-2.132 7.147,0.246 5.312,1.342 3.475,2.438 1.098,1.836 0,0" /></g><g
           transform="translate(437.9023,362.5781)"
           id="g88"><path
             inkscape:connector-curvature="0"
             id="path90"
             style="fill:#ffffff;fill-opacity:1;fill-rule:nonzero;stroke:none"
             d="M 0,0 C 0.573,-0.344 1.025,-0.81 1.344,-1.346 L 3.78,-1.226 1.862,-2.924 C 1.947,-3.729 1.787,-4.564 1.342,-5.312 0.246,-7.148 -2.133,-7.748 -3.97,-6.652 -5.808,-5.558 -6.406,-3.18 -5.312,-1.343 -4.215,0.495 -1.836,1.096 0,0" /></g></g></g></g></svg>