<?xml version="1.0" encoding="UTF-8" standalone="no"?>
<!-- Created with Inkscape (http://www.inkscape.org/) -->

<svg
   xmlns:dc="http://purl.org/dc/elements/1.1/"
   xmlns:cc="http://creativecommons.org/ns#"
   xmlns:rdf="http://www.w3.org/1999/02/22-rdf-syntax-ns#"
   xmlns:svg="http://www.w3.org/2000/svg"
   xmlns="http://www.w3.org/2000/svg"
   xmlns:xlink="http://www.w3.org/1999/xlink"
   xmlns:sodipodi="http://sodipodi.sourceforge.net/DTD/sodipodi-0.dtd"
   xmlns:inkscape="http://www.inkscape.org/namespaces/inkscape"
   width="1280"
   height="1280"
   id="svg3856"
   version="1.1"
   inkscape:version="0.91 r13725"
   sodipodi:docname="dot-w4m2015.svg">
  <defs
     id="defs3858">
    <linearGradient
       id="linearGradient2405"
       y2="116.00353"
       xlink:href="#linearGradient2122"
       x2="279.71701"
       y1="46.682461"
       x1="264.21844"
       gradientTransform="scale(1.1932492,0.83804791)"
       gradientUnits="userSpaceOnUse" />
    <linearGradient
       id="linearGradient2122">
      <stop
         id="stop2124"
         stop-color="#d0f0ff"
         offset="0" />
      <stop
         id="stop2126"
         stop-color="#003968"
         offset="1" />
    </linearGradient>
    <linearGradient
       id="linearGradient2393"
       y2="217.46649"
       x2="38.179413"
       y1="266.06351"
       x1="26.113098"
       gradientTransform="matrix(-2.1461744,-0.28636081,-0.06108292,0.45779516,1026.482,875.68659)"
       gradientUnits="userSpaceOnUse">
      <stop
         id="stop2990"
         stop-color="#fff"
         offset="0" />
      <stop
         id="stop2992"
         stop-color="#fff"
         stop-opacity="0"
         offset="1" />
    </linearGradient>
    <linearGradient
       id="linearGradient2384"
       y2="135.74097"
       xlink:href="#linearGradient2122"
       x2="273.20132"
       y1="86.052948"
       x1="245.23964"
       gradientTransform="scale(1.3763454,0.7265618)"
       gradientUnits="userSpaceOnUse" />
  </defs>
  <sodipodi:namedview
     id="base"
     pagecolor="#ffffff"
     bordercolor="#666666"
     borderopacity="1.0"
     inkscape:pageopacity="0.0"
     inkscape:pageshadow="2"
     inkscape:zoom="0.35355339"
     inkscape:cx="506.43229"
     inkscape:cy="450.02561"
     inkscape:document-units="px"
     inkscape:current-layer="layer1"
     showgrid="false"
     inkscape:window-width="1144"
     inkscape:window-height="722"
     inkscape:window-x="140"
     inkscape:window-y="131"
     inkscape:window-maximized="0" />
  <metadata
     id="metadata3861">
    <rdf:RDF>
      <cc:Work
         rdf:about="">
        <dc:format>image/svg+xml</dc:format>
        <dc:type
           rdf:resource="http://purl.org/dc/dcmitype/StillImage" />
        <dc:title></dc:title>
      </cc:Work>
    </rdf:RDF>
  </metadata>
  <g
     inkscape:label="Dot"
     inkscape:groupmode="layer"
     id="layer1"
     transform="translate(0,227.63782)"
     style="display:inline">
    <g
       transform="matrix(21.525131,0,0,-21.525131,-2979.9906,8053.6035)"
       id="g3569">
      <g
         transform="translate(178.8115,333.0605)"
         id="g3022">
        <path
           inkscape:connector-curvature="0"
           id="path3024"
           style="fill:#cd4e9a;fill-opacity:1;fill-rule:nonzero;stroke:none"
           d="m 0,0 c 0,-0.795 -0.645,-1.439 -1.44,-1.439 l -14.12,0 C -16.355,-1.439 -17,-0.795 -17,0 l 0,2.121 c 0,0.795 0.645,1.44 1.44,1.44 l 14.12,0 C -0.645,3.561 0,2.916 0,2.121 L 0,0 Z" />
      </g>
      <g
         transform="translate(163.3193,345.6211)"
         id="g3026">
        <path
           inkscape:connector-curvature="0"
           id="path3028"
           style="fill:#a53d70;fill-opacity:1;fill-rule:nonzero;stroke:none"
           d="M 0,0 13.992,-0.009 13.987,-2 13.984,-2 -0.008,-1.991 0,0 Z m 15.089,-3.665 c 0.543,0.359 0.903,0.975 0.903,1.674 l 0,1.982 C 15.992,1.099 15.091,2 13.984,2 L 0,2 C -1.107,2 -2.008,1.099 -2.008,-0.009 l 0,-1.982 c 0,-0.699 0.36,-1.315 0.903,-1.674 l -3.553,-7.408 c 0,-0.558 0.451,-0.927 1.008,-0.927 l 21.285,0 c 0.556,0 1.007,0.369 1.007,0.927 l -3.553,7.408 z" />
      </g>
      <g
         transform="translate(163.3193,345.6211)"
         id="g3030">
        <path
           inkscape:connector-curvature="0"
           id="path3032"
           style="fill:#ffffff;fill-opacity:1;fill-rule:nonzero;stroke:none"
           d="M 0,0 13.992,-0.009 13.987,-2 13.984,-2 -0.008,-1.991 0,0 Z" />
      </g>
      <g
         transform="translate(195.8745,362.5137)"
         id="g3034">
        <path
           inkscape:connector-curvature="0"
           id="path3036"
           style="fill:#cd4e9a;fill-opacity:1;fill-rule:nonzero;stroke:none"
           d="M 0,0 C -0.582,2.303 -2.92,3.698 -5.222,3.117 -5.909,2.943 -6.5,2.601 -6.997,2.163 l -4.986,2.227 -1.606,6.359 c -0.534,2.116 -2.833,3.54 -5.082,2.972 l -26.47,-6.687 c -2.249,-0.567 -3.595,-2.913 -3.061,-5.03 l 1.609,-6.367 -3.321,-4.316 c -0.645,0.15 -1.328,0.17 -2.013,-0.003 -2.302,-0.582 -3.698,-2.921 -3.116,-5.222 0.582,-2.304 2.919,-3.699 5.222,-3.117 2.304,0.582 3.697,2.919 3.116,5.222 -0.024,0.097 -0.069,0.182 -0.1,0.276 l 1.522,1.976 1.276,-5.049 c 0.534,-2.115 2.791,-3.37 5.04,-2.802 l 26.467,6.686 c 2.25,0.568 3.639,2.745 3.104,4.86 l -1.277,5.058 2.292,-1.023 c 0.017,-0.096 0.018,-0.192 0.043,-0.288 0.581,-2.303 2.918,-3.699 5.223,-3.117 C -0.813,-4.641 0.581,-2.303 0,0" />
      </g>
      <g
         transform="translate(157.7866,357.4961)"
         id="g3038">
        <path
           inkscape:connector-curvature="0"
           id="path3040"
           style="fill:#ffffff;fill-opacity:1;fill-rule:nonzero;stroke:none"
           d="m 0,0 c -0.342,-0.573 -0.518,-1.199 -0.543,-1.822 l -2.202,-1.05 2.495,-0.587 C 0.057,-4.206 0.596,-4.865 1.344,-5.312 3.18,-6.407 5.557,-5.807 6.653,-3.969 7.75,-2.132 7.148,0.246 5.312,1.342 3.475,2.438 1.098,1.836 0,0" />
      </g>
      <g
         transform="translate(177.9019,362.5781)"
         id="g3042">
        <path
           inkscape:connector-curvature="0"
           id="path3044"
           style="fill:#ffffff;fill-opacity:1;fill-rule:nonzero;stroke:none"
           d="m 0,0 c 0.574,-0.344 1.026,-0.81 1.345,-1.346 l 2.436,0.12 -1.918,-1.698 C 1.948,-3.729 1.787,-4.564 1.342,-5.312 0.246,-7.148 -2.132,-7.748 -3.969,-6.652 -5.807,-5.558 -6.406,-3.18 -5.311,-1.343 -4.215,0.495 -1.836,1.096 0,0" />
      </g>
    </g>
  </g>
  <g
     inkscape:groupmode="layer"
     id="layer3"
     inkscape:label="Text"
     style="display:inline">
    <flowRoot
       xml:space="preserve"
       id="flowRoot9074"
       style="font-style:normal;font-variant:normal;font-weight:normal;font-stretch:normal;font-size:60px;line-height:125%;font-family:Calibri;-inkscape-font-specification:'Calibri, Normal';text-align:start;letter-spacing:0px;word-spacing:0px;writing-mode:lr-tb;text-anchor:start;fill:#ffffff;fill-opacity:1;stroke:none;stroke-width:1px;stroke-linecap:butt;stroke-linejoin:miter;stroke-opacity:1"
       transform="translate(19.79899,0)"><flowRegion
         id="flowRegion9076"><rect
           id="rect9078"
           width="308.29855"
           height="90.509666"
           x="534.57275"
           y="966.04462"
           style="font-style:normal;font-variant:normal;font-weight:normal;font-stretch:normal;font-size:60px;line-height:125%;font-family:Calibri;-inkscape-font-specification:'Calibri, Normal';text-align:start;writing-mode:lr-tb;text-anchor:start;fill:#ffffff" /></flowRegion><flowPara
         id="flowPara9082"
         style="font-style:normal;font-variant:normal;font-weight:bold;font-stretch:normal;font-family:Calibri;-inkscape-font-specification:'Calibri Bold'">W4M2015</flowPara></flowRoot>    <flowRoot
       xml:space="preserve"
       id="flowRoot9084"
       style="font-style:normal;font-variant:normal;font-weight:normal;font-stretch:normal;font-size:60px;line-height:125%;font-family:Calibri;-inkscape-font-specification:'Calibri, Normal';text-align:start;letter-spacing:0px;word-spacing:0px;writing-mode:lr-tb;text-anchor:start;opacity:0.83999999;fill:#000000;fill-opacity:0;stroke:none;stroke-width:1px;stroke-linecap:butt;stroke-linejoin:miter;stroke-opacity:1"><flowRegion
         id="flowRegion9086"><rect
           id="rect9088"
           width="684.47937"
           height="56.568542"
           x="359.21024"
           y="1181.005"
           style="font-style:normal;font-variant:normal;font-weight:normal;font-stretch:normal;font-size:60px;line-height:125%;font-family:Calibri;-inkscape-font-specification:'Calibri, Normal';text-align:start;writing-mode:lr-tb;text-anchor:start;fill:#000000;fill-opacity:0" /></flowRegion><flowPara
         id="flowPara9090"
         style="font-style:normal;font-variant:normal;font-weight:normal;font-stretch:normal;font-size:60px;line-height:125%;font-family:Calibri;-inkscape-font-specification:'Calibri, Normal';text-align:start;writing-mode:lr-tb;text-anchor:start;fill:#000000;fill-opacity:0">tech-girls.org</flowPara></flowRoot>    <flowRoot
       xml:space="preserve"
       id="flowRoot9632"
       style="font-style:normal;font-variant:normal;font-weight:normal;font-stretch:normal;font-size:60px;line-height:125%;font-family:Calibri;-inkscape-font-specification:Calibri;text-align:start;letter-spacing:0px;word-spacing:0px;writing-mode:lr-tb;text-anchor:start;fill:#a53d70;fill-opacity:1;stroke:none;stroke-width:1px;stroke-linecap:butt;stroke-linejoin:miter;stroke-opacity:1"
       transform="translate(94.166522,10.828427)"><flowRegion
         id="flowRegion9634"><rect
           id="rect9636"
           width="528.91589"
           height="96.166519"
           x="429.92093"
           y="1155.5492"
           style="font-style:normal;font-variant:normal;font-weight:normal;font-stretch:normal;font-size:60px;font-family:Calibri;-inkscape-font-specification:Calibri;fill:#a53d70;fill-opacity:1" /></flowRegion><flowPara
         id="flowPara9638">tech-girls.org</flowPara></flowRoot>  </g>
</svg>
