<?xml version="1.0" encoding="UTF-8" standalone="no"?>
<!-- Created with Inkscape (http://www.inkscape.org/) -->

<svg
   xmlns:dc="http://purl.org/dc/elements/1.1/"
   xmlns:cc="http://creativecommons.org/ns#"
   xmlns:rdf="http://www.w3.org/1999/02/22-rdf-syntax-ns#"
   xmlns:svg="http://www.w3.org/2000/svg"
   xmlns="http://www.w3.org/2000/svg"
   xmlns:sodipodi="http://sodipodi.sourceforge.net/DTD/sodipodi-0.dtd"
   xmlns:inkscape="http://www.inkscape.org/namespaces/inkscape"
   width="210mm"
   height="297mm"
   viewBox="0 0 744.09448819 1052.3622047"
   id="svg7976"
   version="1.1"
   inkscape:version="0.91 r13725"
   sodipodi:docname="run-button-with-logo1.svg">
  <defs
     id="defs7978">
    <filter
       height="1.18413"
       id="filter3900"
       width="1.34453"
       x="-0.17226"
       y="-0.092069998">
      <feGaussianBlur
         stdDeviation="14.227"
         id="feGaussianBlur8916" />
    </filter>
  </defs>
  <sodipodi:namedview
     id="base"
     pagecolor="#ffffff"
     bordercolor="#666666"
     borderopacity="1.0"
     inkscape:pageopacity="0.0"
     inkscape:pageshadow="2"
     inkscape:zoom="0.7995935"
     inkscape:cx="233.75953"
     inkscape:cy="883.21302"
     inkscape:document-units="px"
     inkscape:current-layer="layer1"
     showgrid="false"
     inkscape:window-width="1285"
     inkscape:window-height="745"
     inkscape:window-x="0"
     inkscape:window-y="23"
     inkscape:window-maximized="0" />
  <metadata
     id="metadata7981">
    <rdf:RDF>
      <cc:Work
         rdf:about="">
        <dc:format>image/svg+xml</dc:format>
        <dc:type
           rdf:resource="http://purl.org/dc/dcmitype/StillImage" />
        <dc:title></dc:title>
      </cc:Work>
    </rdf:RDF>
  </metadata>
  <g
     inkscape:label="Layer 1"
     inkscape:groupmode="layer"
     id="layer1">
    <rect
       style="opacity:1;fill:#cd439a;fill-opacity:1;fill-rule:evenodd;stroke:#216778;stroke-width:2.3715415;stroke-miterlimit:4;stroke-dasharray:2.37154148, 2.37154147999999987;stroke-dashoffset:0;stroke-opacity:0"
       id="rect7986"
       width="597.62842"
       height="197.62846"
       x="67.247017"
       y="574.72638"
       rx="9.960475"
       ry="14.116319" />
    <flowRoot
       xml:space="preserve"
       id="flowRoot8788"
       style="font-style:normal;font-variant:normal;font-weight:normal;font-stretch:normal;font-size:50px;line-height:125%;font-family:'Helvetica Neue';-inkscape-font-specification:'Helvetica Neue, Normal';text-align:start;letter-spacing:0px;word-spacing:0px;writing-mode:lr;text-anchor:start;fill:#ffffff;fill-opacity:1;stroke:#ffffff;stroke-width:2;stroke-linecap:butt;stroke-linejoin:miter;stroke-opacity:0;stroke-miterlimit:4;stroke-dasharray:none"
       transform="translate(52,126)"><flowRegion
         id="flowRegion8790"><rect
           id="rect8792"
           width="200"
           height="30"
           x="144"
           y="280.36221"
           style="font-style:normal;font-variant:normal;font-weight:normal;font-stretch:normal;font-size:50px;line-height:125%;font-family:'Helvetica Neue';-inkscape-font-specification:'Helvetica Neue, Normal';text-align:start;writing-mode:lr;text-anchor:start;fill:#ffffff;fill-opacity:1;stroke:#ffffff;stroke-opacity:0;stroke-width:2;stroke-miterlimit:4;stroke-dasharray:none" /></flowRegion><flowPara
         id="flowPara8794"
         style="font-style:normal;font-variant:normal;font-weight:normal;font-stretch:normal;font-size:50px;line-height:125%;font-family:'Helvetica Neue';-inkscape-font-specification:'Helvetica Neue, Normal';text-align:start;writing-mode:lr;text-anchor:start;fill:#ffffff;fill-opacity:1;stroke:#ffffff;stroke-opacity:0;stroke-width:2;stroke-miterlimit:4;stroke-dasharray:none">RUN</flowPara></flowRoot>    <text
       xml:space="preserve"
       style="font-style:normal;font-variant:normal;font-weight:bold;font-stretch:normal;font-size:100px;line-height:125%;font-family:'Helvetica Neue';-inkscape-font-specification:'Helvetica Neue, Bold';text-align:start;letter-spacing:0px;word-spacing:0px;writing-mode:lr-tb;text-anchor:start;fill:#ffffff;fill-opacity:1;stroke:none;stroke-width:1px;stroke-linecap:butt;stroke-linejoin:miter;stroke-opacity:1"
       x="255.00128"
       y="712.95197"
       id="text8839"
       sodipodi:linespacing="125%"><tspan
         sodipodi:role="line"
         id="tspan8841"
         x="255.00128"
         y="712.95197"
         style="font-style:normal;font-variant:normal;font-weight:bold;font-stretch:normal;font-size:100px;line-height:125%;font-family:'Helvetica Neue';-inkscape-font-specification:'Helvetica Neue, Bold';text-align:start;writing-mode:lr-tb;text-anchor:start;fill:#ffffff">RUN</tspan></text>
    <path
       d="m 497.74683,738.29597 0.10408,87.18124 18.43216,-17.42535 12.98609,35.39251 c 1.54287,-5.01204 5.05032,-5.02508 8.98352,-3.95499 l -12.88472,-35.31857 24.63284,0.43914 -52.25397,-66.31398 z"
       id="path8927"
       inkscape:connector-curvature="0"
       style="fill:#ffffff;stroke:#000000;stroke-width:4.10088444;stroke-linejoin:bevel"
       inkscape:transform-center-x="41.144464"
       inkscape:transform-center-y="-172.14546" />
    <flowRoot
       xml:space="preserve"
       id="flowRoot9020"
       style="fill:black;stroke:none;stroke-opacity:1;stroke-width:1px;stroke-linejoin:miter;stroke-linecap:butt;fill-opacity:1;font-family:Arial Narrow;font-style:normal;font-weight:normal;font-size:20px;line-height:125%;letter-spacing:0px;word-spacing:0px;-inkscape-font-specification:Arial Narrow Condensed;font-stretch:condensed;font-variant:normal;text-anchor:start;text-align:start;writing-mode:lr"><flowRegion
         id="flowRegion9022"><rect
           id="rect9024"
           width="537.6369"
           height="497.62668"
           x="110.02801"
           y="124.62602" /></flowRegion><flowPara
         id="flowPara9026" /></flowRoot>    <flowRoot
       xml:space="preserve"
       id="flowRoot9028"
       style="font-style:normal;font-variant:normal;font-weight:normal;font-stretch:condensed;font-size:20px;line-height:125%;font-family:'Arial Narrow';-inkscape-font-specification:'Arial Narrow Condensed';text-align:start;letter-spacing:0px;word-spacing:0px;writing-mode:lr-tb;text-anchor:start;fill:#000000;fill-opacity:1;stroke:none;stroke-width:1px;stroke-linecap:butt;stroke-linejoin:miter;stroke-opacity:1"
       transform="matrix(1.2152354,0,0,1.2152354,26.266278,-27.140971)"><flowRegion
         id="flowRegion9030"><rect
           id="rect9032"
           width="760.19354"
           height="495.12607"
           x="82.521011"
           y="112.12283" /></flowRegion><flowPara
         id="flowPara9034"
         style="font-style:normal;font-variant:normal;font-weight:bold;font-stretch:normal;font-size:45px;font-family:'Courier New';-inkscape-font-specification:'Courier New Bold'">#!/</flowPara><flowPara
         id="flowPara9038"
         style="font-style:normal;font-variant:normal;font-weight:bold;font-stretch:normal;font-size:45px;font-family:'Courier New';-inkscape-font-specification:'Courier New Bold'" /><flowPara
         style="font-style:normal;font-variant:normal;font-weight:bold;font-stretch:normal;font-size:45px;font-family:'Courier New';-inkscape-font-specification:'Courier New Bold'"
         id="flowPara9048">while True:</flowPara><flowPara
         id="flowPara9040"
         style="font-style:normal;font-variant:normal;font-weight:bold;font-stretch:normal;font-size:45px;font-family:'Courier New';-inkscape-font-specification:'Courier New Bold'">  imagine</flowPara><flowPara
         id="flowPara9042"
         style="font-style:normal;font-variant:normal;font-weight:bold;font-stretch:normal;font-size:45px;font-family:'Courier New';-inkscape-font-specification:'Courier New Bold'">  discover</flowPara><flowPara
         style="font-style:normal;font-variant:normal;font-weight:bold;font-stretch:normal;font-size:45px;font-family:'Courier New';-inkscape-font-specification:'Courier New Bold'"
         id="flowPara9697">  create</flowPara></flowRoot>    <flowRoot
       xml:space="preserve"
       id="flowRoot9050"
       style="font-style:normal;font-variant:normal;font-weight:normal;font-stretch:condensed;font-size:20px;line-height:125%;font-family:'Arial Narrow';-inkscape-font-specification:'Arial Narrow Condensed';text-align:start;letter-spacing:0px;word-spacing:0px;writing-mode:lr-tb;text-anchor:start;fill:#000000;fill-opacity:1;stroke:none;stroke-width:1px;stroke-linecap:butt;stroke-linejoin:miter;stroke-opacity:1"><flowRegion
         id="flowRegion9052"><rect
           id="rect9054"
           width="495.12604"
           height="45.011459"
           x="130.03311"
           y="932.33167" /></flowRegion><flowPara
         id="flowPara9056"
         style="font-size:45px">tech-girls.org</flowPara></flowRoot>    <flowRoot
       xml:space="preserve"
       id="flowRoot9058"
       style="fill:black;stroke:none;stroke-opacity:1;stroke-width:1px;stroke-linejoin:miter;stroke-linecap:butt;fill-opacity:1;font-family:Arial Narrow;font-style:normal;font-weight:normal;font-size:60px;line-height:125%;letter-spacing:0px;word-spacing:0px;-inkscape-font-specification:Arial Narrow Condensed;font-stretch:condensed;font-variant:normal;text-anchor:start;text-align:start;writing-mode:lr;"><flowRegion
         id="flowRegion9060"><rect
           id="rect9062"
           width="372.59485"
           height="82.521011"
           x="170.04329"
           y="884.81958"
           style="font-size:60px;" /></flowRegion><flowPara
         id="flowPara9064" /></flowRoot>    <flowRoot
       xml:space="preserve"
       id="flowRoot9677"
       style="font-style:normal;font-variant:normal;font-weight:bold;font-stretch:normal;font-size:45px;line-height:125%;font-family:'Courier New';-inkscape-font-specification:'Courier New, Bold';text-align:start;letter-spacing:0px;word-spacing:0px;writing-mode:lr-tb;text-anchor:start;fill:#000000;fill-opacity:1;stroke:none;stroke-width:1px;stroke-linecap:butt;stroke-linejoin:miter;stroke-opacity:1"
       transform="translate(3.006366,48.04329)"><flowRegion
         id="flowRegion9679"><rect
           id="rect9681"
           width="760.19354"
           height="495.12607"
           x="82.521011"
           y="112.12283"
           style="font-style:normal;font-variant:normal;font-weight:bold;font-stretch:normal;font-size:45px;line-height:125%;font-family:'Courier New';-inkscape-font-specification:'Courier New, Bold';text-align:start;writing-mode:lr-tb;text-anchor:start" /></flowRegion><flowPara
         id="flowPara9695" /></flowRoot>    <g
       transform="matrix(0.29951022,0,0,0.30616509,223.14855,-126.80279)"
       id="layer1-9"
       inkscape:label="Layer 1">
      <g
         transform="matrix(1.0725561,0,0,1.0725561,-53.337772,-3.6134122)"
         id="g3590">
        <path
           inkscape:connector-curvature="0"
           id="path94"
           style="fill:#4d4c4e;fill-opacity:1;fill-rule:nonzero;stroke:none"
           d="m 400.4084,802.7801 0,3.36229 18.97294,0 0,136.63321 3.83595,0 0,-136.63321 18.49262,0 0,-3.36229 -41.30151,0 z" />
        <path
           inkscape:connector-curvature="0"
           id="path98"
           style="fill:#4d4c4e;fill-opacity:1;fill-rule:nonzero;stroke:none"
           d="m 507.17723,870.74316 -36.0179,0 0,51.86204 c 0,10.56721 5.76393,18.25245 16.33114,18.25245 10.08688,0 15.84414,-6.72458 15.84414,-17.77212 l 0,-19.45327 3.84262,0 0,19.45327 c 0,12.72868 -7.44508,21.61474 -19.68676,21.61474 -11.76803,0 -20.17376,-9.36638 -20.17376,-22.09507 l 0,-100.36846 c 0,-12.96885 7.68524,-21.85491 20.17376,-21.85491 12.24168,0 19.68676,8.63923 19.68676,21.60807 l 0,48.75326 z m -3.84262,-48.75326 c 0,-11.04086 -5.28361,-18.01228 -15.84414,-18.01228 -9.60656,0 -16.33114,7.69858 -16.33114,18.25912 l 0,44.89729 32.17528,0 0,-45.14413 z" />
        <path
           inkscape:connector-curvature="0"
           id="path102"
           style="fill:#4d4c4e;fill-opacity:1;fill-rule:nonzero;stroke:none"
           d="m 572.74265,821.99256 c 0,-11.04086 -5.2836,-18.01229 -15.85081,-18.01229 -9.59988,0 -16.32447,7.68525 -16.32447,18.25245 l 0,100.37514 c 0,10.56721 5.76393,18.25245 16.32447,18.25245 10.08688,0 15.85081,-6.72459 15.85081,-17.77212 l 0,-18.00562 3.84262,0 0,18.00562 c 0,12.72868 -7.44508,21.61474 -19.69343,21.61474 -11.76136,0 -20.16709,-9.36639 -20.16709,-22.09507 l 0,-100.37514 c 0,-12.96217 7.67857,-21.84823 20.16709,-21.84823 12.24835,0 19.69343,8.63922 19.69343,21.60807 l 0,18.01229 -3.84262,0 0,-18.01229 z" />
        <path
           inkscape:connector-curvature="0"
           id="path106"
           style="fill:#4d4c4e;fill-opacity:1;fill-rule:nonzero;stroke:none"
           d="m 644.09063,802.2978 0,69.881 -34.81708,0 0,-69.881 -3.84262,0 0,140.47582 3.84262,0 0,-66.7522 34.81708,0 0,66.7522 3.84262,0 0,-140.47582 -3.84262,0 z" />
        <path
           d="m 675.74287,880.10687 20.89426,0 0,-3.84261 -20.89426,0 0,3.84261 z"
           style="fill:#4d4c4e;fill-opacity:1;fill-rule:nonzero;stroke:none"
           id="path108"
           inkscape:connector-curvature="0" />
        <path
           inkscape:connector-curvature="0"
           id="path112"
           style="fill:#4d4c4e;fill-opacity:1;fill-rule:nonzero;stroke:none"
           d="m 745.00543,798.71472 c -13.42249,0 -22.80222,9.66659 -22.80222,23.51604 l 0,100.37514 c 0,13.54924 9.80002,23.76287 22.80222,23.76287 12.92882,0 22.31522,-9.79334 22.31522,-23.28255 l 0,-49.45373 -17.25844,0 0,6.93807 10.08688,0 0,42.51566 c 0,9.92678 -5.80396,16.10432 -15.14366,16.10432 -9.34638,0 -15.62399,-6.67121 -15.62399,-16.58464 l 0,-100.37514 c 0,-9.75999 6.42438,-16.58465 15.62399,-16.58465 9.4798,0 15.14366,6.11084 15.14366,16.34449 l 0,16.32447 7.17156,0 0,-16.32447 c 0,-13.92283 -8.97279,-23.27588 -22.31522,-23.27588" />
        <path
           d="m 793.41648,944.45744 7.17823,0 0,-143.82477 -7.17823,0 0,143.82477 z"
           style="fill:#4d4c4e;fill-opacity:1;fill-rule:nonzero;stroke:none"
           id="path114"
           inkscape:connector-curvature="0" />
        <path
           inkscape:connector-curvature="0"
           id="path118"
           style="fill:#4d4c4e;fill-opacity:1;fill-rule:nonzero;stroke:none"
           d="m 834.81602,807.09307 16.33781,0 c 10.41377,0 11.54121,9.91343 11.54121,14.17634 l 0,36.26473 c 0,9.80669 -4.66986,14.18301 -15.14367,14.18301 l -12.73535,0 0,-64.62408 z m 35.53757,119.60158 0,-33.62293 c 0,-8.63256 -3.36896,-14.73005 -9.80001,-17.86552 6.31764,-3.30893 9.07952,-8.81268 9.07952,-17.67206 l 0,-36.26473 c 0,-12.87545 -7.08483,-20.87424 -18.47927,-20.87424 l -23.51604,0 0,144.04492 7.17823,0 0,-66.03171 12.73535,0 c 9.92678,0 15.62399,5.34365 15.62399,14.66334 l 0,33.62293 c 0,5.60383 0.52036,11.4278 1.46767,16.39118 l 0.26018,1.35426 7.15822,0 -0.28687,-1.91464 c -0.53369,-3.52907 -1.42097,-10.28034 -1.42097,-15.8308" />
        <path
           inkscape:connector-curvature="0"
           id="path122"
           style="fill:#4d4c4e;fill-opacity:1;fill-rule:nonzero;stroke:none"
           d="m 904.7204,800.63 -7.17156,0 0,143.81143 33.58958,0 0,-7.16489 -26.41802,0 0,-136.64654 z" />
        <path
           inkscape:connector-curvature="0"
           id="path126"
           style="fill:#4d4c4e;fill-opacity:1;fill-rule:nonzero;stroke:none"
           d="m 991.08465,833.02213 0,-10.78736 c 0,-14.50322 -8.38572,-24.2432 -20.87424,-24.2432 -14.14298,0 -23.28255,10.08021 -23.28255,25.68418 0,18.53932 8.74597,33.04922 18.00562,48.39969 l 1.42764,2.38829 c 9.59988,16.45122 17.5453,31.34805 17.5453,46.94536 0,12.06156 -5.78395,18.97961 -15.86415,18.97961 -10.22698,0 -15.85749,-6.3977 -15.85749,-18.01896 l 0,-9.58654 -7.17823,0 0,9.58654 c 0,15.17035 9.0395,24.9637 23.03572,24.9637 13.56925,0 23.04238,-10.66728 23.04238,-25.92435 0,-17.64537 -8.47912,-33.33607 -18.73278,-50.56783 l -1.44098,-2.40831 c -10.15359,-16.65136 -16.8048,-28.76629 -16.8048,-44.7572 0,-11.74134 6.01744,-18.75279 16.10432,-18.75279 8.44576,0 13.69601,6.63119 13.69601,17.31181 l 0,10.78736 7.17823,0 z" />
      </g>
      <g
         transform="matrix(1.2220502,0,0,1.2220502,-56.629616,-209.18715)"
         id="g3653">
        <g
           id="g20"
           transform="matrix(6.0397149,0,0,-6.0397149,283.20315,997.71554)">
          <path
             d="m 0,0 c 0,-0.795 -0.645,-1.439 -1.44,-1.439 l -14.12,0 C -16.355,-1.439 -17,-0.795 -17,0 l 0,2.121 c 0,0.795 0.645,1.44 1.44,1.44 l 14.12,0 C -0.645,3.561 0,2.916 0,2.121 L 0,0 Z"
             style="fill:#cd4e9a;fill-opacity:1;fill-rule:nonzero;stroke:none"
             id="path22"
             inkscape:connector-curvature="0" />
        </g>
        <g
           id="g24"
           transform="matrix(6.0397149,0,0,-6.0397149,189.63468,921.8531)">
          <path
             d="M 0,0 13.992,-0.009 13.987,-2 13.984,-2 -0.008,-1.991 0,0 Z m 15.089,-3.665 c 0.543,0.359 0.903,0.975 0.903,1.674 l 0,1.982 C 15.992,1.099 15.091,2 13.984,2 L 0,2 C -1.107,2 -2.008,1.099 -2.008,-0.009 l 0,-1.982 c 0,-0.699 0.36,-1.315 0.903,-1.674 l -3.553,-7.408 c 0,-0.558 0.451,-0.927 1.008,-0.927 l 21.285,0 c 0.556,0 1.007,0.369 1.007,0.927 l -3.553,7.408 z"
             style="fill:#a53d70;fill-opacity:1;fill-rule:nonzero;stroke:none"
             id="path26"
             inkscape:connector-curvature="0" />
        </g>
        <g
           id="g28"
           transform="matrix(6.0397149,0,0,-6.0397149,189.63468,921.8531)">
          <path
             d="M 0,0 13.992,-0.009 13.987,-2 13.984,-2 -0.008,-1.991 0,0 Z"
             style="fill:#ffffff;fill-opacity:1;fill-rule:nonzero;stroke:none"
             id="path30"
             inkscape:connector-curvature="0" />
        </g>
        <g
           id="g32"
           transform="matrix(6.0397149,0,0,-6.0397149,386.25885,819.82666)">
          <path
             d="M 0,0 C -0.582,2.303 -2.92,3.698 -5.222,3.117 -5.909,2.943 -6.5,2.601 -6.997,2.163 l -4.986,2.227 -1.606,6.359 c -0.534,2.116 -2.833,3.54 -5.082,2.972 l -26.47,-6.687 c -2.249,-0.567 -3.595,-2.913 -3.061,-5.03 l 1.609,-6.367 -3.321,-4.316 c -0.645,0.15 -1.328,0.17 -2.013,-0.003 -2.302,-0.582 -3.698,-2.921 -3.116,-5.222 0.582,-2.304 2.919,-3.699 5.222,-3.117 2.304,0.582 3.697,2.919 3.116,5.222 -0.024,0.097 -0.069,0.182 -0.1,0.276 l 1.522,1.976 1.276,-5.049 c 0.534,-2.115 2.791,-3.37 5.04,-2.802 l 26.467,6.686 c 2.25,0.568 3.639,2.745 3.104,4.86 l -1.277,5.058 2.292,-1.023 c 0.017,-0.096 0.018,-0.192 0.043,-0.288 0.581,-2.303 2.918,-3.699 5.223,-3.117 C -0.813,-4.641 0.581,-2.303 0,0"
             style="fill:#cd4e9a;fill-opacity:1;fill-rule:nonzero;stroke:none"
             id="path34"
             inkscape:connector-curvature="0" />
        </g>
        <g
           id="g36"
           transform="matrix(6.0397149,0,0,-6.0397149,156.21877,850.13148)">
          <path
             d="m 0,0 c -0.342,-0.573 -0.518,-1.199 -0.543,-1.822 l -2.202,-1.05 2.495,-0.587 C 0.057,-4.206 0.596,-4.865 1.344,-5.312 3.18,-6.407 5.557,-5.807 6.653,-3.969 7.75,-2.132 7.148,0.246 5.312,1.342 3.475,2.438 1.098,1.836 0,0"
             style="fill:#ffffff;fill-opacity:1;fill-rule:nonzero;stroke:none"
             id="path38"
             inkscape:connector-curvature="0" />
        </g>
        <g
           id="g40"
           transform="matrix(6.0397149,0,0,-6.0397149,277.70947,819.43766)">
          <path
             d="m 0,0 c 0.574,-0.344 1.026,-0.81 1.345,-1.346 l 2.436,0.12 -1.918,-1.698 C 1.948,-3.729 1.787,-4.564 1.342,-5.312 0.246,-7.148 -2.132,-7.748 -3.969,-6.652 -5.807,-5.558 -6.406,-3.18 -5.311,-1.343 -4.215,0.495 -1.836,1.096 0,0"
             style="fill:#ffffff;fill-opacity:1;fill-rule:nonzero;stroke:none"
             id="path42"
             inkscape:connector-curvature="0" />
        </g>
      </g>
    </g>
  </g>
</svg>
