<?xml version="1.0" encoding="UTF-8" standalone="no"?>
<!-- Created with Inkscape (http://www.inkscape.org/) -->

<svg
   xmlns:dc="http://purl.org/dc/elements/1.1/"
   xmlns:cc="http://creativecommons.org/ns#"
   xmlns:rdf="http://www.w3.org/1999/02/22-rdf-syntax-ns#"
   xmlns:svg="http://www.w3.org/2000/svg"
   xmlns="http://www.w3.org/2000/svg"
   xmlns:sodipodi="http://sodipodi.sourceforge.net/DTD/sodipodi-0.dtd"
   xmlns:inkscape="http://www.inkscape.org/namespaces/inkscape"
   id="svg3023"
   version="1.1"
   inkscape:version="0.48.2 r9819"
   width="765"
   height="765"
   xml:space="preserve"
   sodipodi:docname="tech-girl-logo.svg"><metadata
     id="metadata3029"><rdf:RDF><cc:Work
         rdf:about=""><dc:format>image/svg+xml</dc:format><dc:type
           rdf:resource="http://purl.org/dc/dcmitype/StillImage" /><dc:title></dc:title></cc:Work></rdf:RDF></metadata><defs
     id="defs3027"><clipPath
       clipPathUnits="userSpaceOnUse"
       id="clipPath3051"><path
         d="M 0,0 612,0 612,612 0,612 0,0 z"
         id="path3053" /></clipPath><clipPath
       clipPathUnits="userSpaceOnUse"
       id="clipPath3107"><path
         d="M 0,0 612,0 612,612 0,612 0,0 z"
         id="path3109" /></clipPath><clipPath
       clipPathUnits="userSpaceOnUse"
       id="clipPath3125"><path
         d="M 0,0 612,0 612,612 0,612 0,0 z"
         id="path3127" /></clipPath><clipPath
       clipPathUnits="userSpaceOnUse"
       id="clipPath3139"><path
         d="M 0,0 612,0 612,612 0,612 0,0 z"
         id="path3141" /></clipPath><clipPath
       clipPathUnits="userSpaceOnUse"
       id="clipPath3155"><path
         d="M 0,0 612,0 612,612 0,612 0,0 z"
         id="path3157" /></clipPath><clipPath
       clipPathUnits="userSpaceOnUse"
       id="clipPath3215"><path
         d="M 0,0 612,0 612,612 0,612 0,0 z"
         id="path3217" /></clipPath><clipPath
       clipPathUnits="userSpaceOnUse"
       id="clipPath3233"><path
         d="M 0,0 612,0 612,612 0,612 0,0 z"
         id="path3235" /></clipPath><clipPath
       clipPathUnits="userSpaceOnUse"
       id="clipPath3247"><path
         d="M 0,0 612,0 612,612 0,612 0,0 z"
         id="path3249" /></clipPath><clipPath
       clipPathUnits="userSpaceOnUse"
       id="clipPath3263"><path
         d="M 0,0 612,0 612,612 0,612 0,0 z"
         id="path3265" /></clipPath><clipPath
       clipPathUnits="userSpaceOnUse"
       id="clipPath3323"><path
         d="M 0,0 612,0 612,612 0,612 0,0 z"
         id="path3325" /></clipPath><clipPath
       clipPathUnits="userSpaceOnUse"
       id="clipPath3341"><path
         d="M 0,0 612,0 612,612 0,612 0,0 z"
         id="path3343" /></clipPath><clipPath
       clipPathUnits="userSpaceOnUse"
       id="clipPath3357"><path
         d="M 0,0 612,0 612,612 0,612 0,0 z"
         id="path3359" /></clipPath><clipPath
       clipPathUnits="userSpaceOnUse"
       id="clipPath3373"><path
         d="M 0,0 612,0 612,612 0,612 0,0 z"
         id="path3375" /></clipPath><clipPath
       clipPathUnits="userSpaceOnUse"
       id="clipPath3429"><path
         d="M 0,0 612,0 612,612 0,612 0,0 z"
         id="path3431" /></clipPath><clipPath
       clipPathUnits="userSpaceOnUse"
       id="clipPath3453"><path
         d="M 0,0 612,0 612,612 0,612 0,0 z"
         id="path3455" /></clipPath><clipPath
       clipPathUnits="userSpaceOnUse"
       id="clipPath3473"><path
         d="M 0,0 612,0 612,612 0,612 0,0 z"
         id="path3475" /></clipPath><clipPath
       clipPathUnits="userSpaceOnUse"
       id="clipPath3497"><path
         d="M 0,0 612,0 612,612 0,612 0,0 z"
         id="path3499" /></clipPath><clipPath
       clipPathUnits="userSpaceOnUse"
       id="clipPath4728"><path
         inkscape:connector-curvature="0"
         d="M 0,0 612,0 612,612 0,612 0,0 z"
         id="path4730" /></clipPath><clipPath
       clipPathUnits="userSpaceOnUse"
       id="clipPath4752"><path
         inkscape:connector-curvature="0"
         d="M 0,0 612,0 612,612 0,612 0,0 z"
         id="path4754" /></clipPath><clipPath
       clipPathUnits="userSpaceOnUse"
       id="clipPath4772"><path
         inkscape:connector-curvature="0"
         d="M 0,0 612,0 612,612 0,612 0,0 z"
         id="path4774" /></clipPath><clipPath
       clipPathUnits="userSpaceOnUse"
       id="clipPath4796"><path
         inkscape:connector-curvature="0"
         d="M 0,0 612,0 612,612 0,612 0,0 z"
         id="path4798" /></clipPath><clipPath
       clipPathUnits="userSpaceOnUse"
       id="clipPath8003"><path
         inkscape:connector-curvature="0"
         d="M 0,0 612,0 612,612 0,612 0,0 z"
         id="path8005" /></clipPath><clipPath
       clipPathUnits="userSpaceOnUse"
       id="clipPath3032-8"><path
         inkscape:connector-curvature="0"
         d="M 0,0 612,0 612,612 0,612 0,0 z"
         id="path3034-3" /></clipPath><clipPath
       clipPathUnits="userSpaceOnUse"
       id="clipPath3032-8-3"><path
         inkscape:connector-curvature="0"
         d="M 0,0 612,0 612,612 0,612 0,0 z"
         id="path3034-3-3" /></clipPath><clipPath
       clipPathUnits="userSpaceOnUse"
       id="clipPath3330"><path
         inkscape:connector-curvature="0"
         d="M 0,0 612,0 612,612 0,612 0,0 z"
         id="path3332" /></clipPath><clipPath
       clipPathUnits="userSpaceOnUse"
       id="clipPath3776"><path
         inkscape:connector-curvature="0"
         d="M 0,0 612,0 612,612 0,612 0,0 z"
         id="path3778" /></clipPath><clipPath
       clipPathUnits="userSpaceOnUse"
       id="clipPath3752"><path
         inkscape:connector-curvature="0"
         d="M 0,0 612,0 612,612 0,612 0,0 z"
         id="path3754" /></clipPath><clipPath
       clipPathUnits="userSpaceOnUse"
       id="clipPath3732"><path
         inkscape:connector-curvature="0"
         d="M 0,0 612,0 612,612 0,612 0,0 z"
         id="path3734" /></clipPath><clipPath
       clipPathUnits="userSpaceOnUse"
       id="clipPath3708"><path
         inkscape:connector-curvature="0"
         d="M 0,0 612,0 612,612 0,612 0,0 z"
         id="path3710" /></clipPath></defs><sodipodi:namedview
     pagecolor="#ffffff"
     bordercolor="#666666"
     borderopacity="1"
     objecttolerance="10"
     gridtolerance="10"
     guidetolerance="10"
     inkscape:pageopacity="0"
     inkscape:pageshadow="2"
     inkscape:window-width="1280"
     inkscape:window-height="924"
     id="namedview3025"
     showgrid="false"
     inkscape:zoom="1.9248118"
     inkscape:cx="354.68276"
     inkscape:cy="353.53127"
     inkscape:window-x="207"
     inkscape:window-y="0"
     inkscape:window-maximized="0"
     inkscape:current-layer="g3049"><inkscape:grid
       type="xygrid"
       id="grid3182"
       empspacing="5"
       visible="true"
       enabled="true"
       snapvisiblegridlinesonly="true" /></sodipodi:namedview><g
     id="g3031"
     inkscape:groupmode="layer"
     inkscape:label="tech_girls_v2"
     transform="matrix(1.25,0,0,-1.25,0,765)"><g
       transform="matrix(7.5665271,0,0,7.5574515,-1232.0975,-2946.0588)"
       clip-path="url(#clipPath3051)"
       id="g3049"><g
         transform="matrix(0.4468953,0,0,0.44743197,91.267368,243.07601)"
         id="g3326"
         inkscape:export-filename="/Users/tom/Documents/home/graphics/tech-girls/animate/logo-text-282x100.png"
         inkscape:export-xdpi="47.592644"
         inkscape:export-ydpi="47.592644"><g
           id="g3328"
           clip-path="url(#clipPath3330)"><g
             id="g3334"
             transform="translate(224.534,442.861)"><path
               inkscape:connector-curvature="0"
               d="m 0,0 c 0.437,0.981 1.747,1.35 2.924,0.824 l 8.521,-3.804 c 1.178,-0.524 1.778,-1.746 1.34,-2.727 l -0.08,-0.178 C 12.268,-6.865 10.912,-7.34 9.734,-6.814 l -8.522,3.803 c -1.177,0.525 -1.73,1.853 -1.292,2.833 L 0,0 z"
               style="fill:#cc2299;fill-opacity:1;fill-rule:nonzero;stroke:none"
               id="path3336" /></g><g
             id="g3338"
             transform="translate(238.7547,432.9889)"><path
               inkscape:connector-curvature="0"
               d="M 0,0 C -2.305,-0.582 -4.642,0.813 -5.223,3.116 -5.805,5.418 -4.41,7.757 -2.107,8.339 0.195,8.92 2.533,7.524 3.115,5.222 3.696,2.919 2.302,0.581 0,0"
               style="fill:#cc2299;fill-opacity:1;fill-rule:nonzero;stroke:none"
               id="path3340" /></g><g
             id="g3342"
             transform="translate(199.8738,436.6305)"><path
               inkscape:connector-curvature="0"
               d="m 0,0 c -0.852,0.656 -2.179,0.359 -2.964,-0.662 l -5.692,-7.396 c -0.787,-1.021 -0.735,-2.38 0.116,-3.036 l 0.154,-0.118 c 0.851,-0.655 2.271,-0.429 3.057,0.593 l 5.692,7.394 c 0.787,1.022 0.642,2.453 -0.209,3.108 L 0,0 z"
               style="fill:#cc2299;fill-opacity:1;fill-rule:nonzero;stroke:none"
               id="path3344" /></g><g
             id="g3346"
             transform="translate(192.0486,421.1901)"><path
               inkscape:connector-curvature="0"
               d="M 0,0 C 2.304,0.581 3.698,2.919 3.116,5.222 2.535,7.524 0.197,8.92 -2.106,8.339 -4.408,7.757 -5.803,5.418 -5.222,3.116 -4.64,0.813 -2.302,-0.582 0,0"
               style="fill:#cc2299;fill-opacity:1;fill-rule:nonzero;stroke:none"
               id="path3348" /></g><g
             id="g3350"
             transform="translate(222.9577,417.318)"><path
               inkscape:connector-curvature="0"
               d="m 0,0 -13.984,0 c -1.107,0 -2.008,0.901 -2.008,2.009 l 0,1.982 c 0,1.108 0.901,2.009 2.008,2.009 L 0,6 C 1.107,6 2.008,5.099 2.008,3.991 l 0,-1.982 C 2.008,0.901 1.107,0 0,0 M -13.984,4 -13.992,2.009 0,2 0.003,2 0.008,3.991 -13.984,4 z"
               style="fill:#9f1d68;fill-opacity:1;fill-rule:nonzero;stroke:none"
               id="path3352" /></g><g
             id="g3354"
             transform="translate(224.9656,408.7575)"><path
               inkscape:connector-curvature="0"
               d="m 0,0 c 0,-0.795 -0.645,-1.44 -1.44,-1.44 l -14.12,0 C -16.355,-1.44 -17,-0.795 -17,0 l 0,2.121 c 0,0.795 0.645,1.439 1.44,1.439 l 14.12,0 C -0.645,3.56 0,2.916 0,2.121 L 0,0 z"
               style="fill:#cc2299;fill-opacity:1;fill-rule:nonzero;stroke:none"
               id="path3356" /></g><g
             id="g3358"
             transform="translate(232.4743,432.359)"><path
               inkscape:connector-curvature="0"
               d="m 0,0 c 0.534,-2.115 -0.854,-4.292 -3.104,-4.86 l -26.468,-6.687 c -2.249,-0.567 -4.505,0.688 -5.04,2.803 l -4.194,16.599 c -0.535,2.118 0.812,4.463 3.061,5.031 l 26.469,6.686 c 2.249,0.569 4.549,-0.855 5.082,-2.971 L 0,0 z"
               style="fill:#cc2299;fill-opacity:1;fill-rule:nonzero;stroke:none"
               id="path3360" /></g><g
             id="g3362"
             transform="translate(203.782,433.193)"><path
               inkscape:connector-curvature="0"
               d="m 0,0 c -0.342,-0.573 -0.518,-1.199 -0.543,-1.822 l -2.202,-1.05 2.495,-0.587 C 0.057,-4.206 0.596,-4.865 1.344,-5.312 3.18,-6.407 5.557,-5.807 6.653,-3.969 7.75,-2.132 7.148,0.246 5.312,1.342 3.475,2.438 1.098,1.836 0,0"
               style="fill:#ffffff;fill-opacity:1;fill-rule:nonzero;stroke:none"
               id="path3364" /></g><g
             id="g3366"
             transform="translate(223.8972,438.275)"><path
               inkscape:connector-curvature="0"
               d="M 0,0 C 0.574,-0.344 1.026,-0.81 1.345,-1.346 L 3.781,-1.225 1.863,-2.924 C 1.948,-3.729 1.787,-4.564 1.342,-5.313 0.246,-7.148 -2.132,-7.748 -3.969,-6.652 -5.807,-5.557 -6.406,-3.18 -5.311,-1.343 -4.215,0.495 -1.836,1.096 0,0"
               style="fill:#ffffff;fill-opacity:1;fill-rule:nonzero;stroke:none"
               id="path3368" /></g><g
             id="g3370"
             transform="translate(227.9801,410.2448)"><path
               inkscape:connector-curvature="0"
               d="m 0,0 c 0,-0.558 -0.451,-0.927 -1.007,-0.927 l -21.285,0 c -0.557,0 -1.008,0.369 -1.008,0.927 l 3.8,7.924 c 0.306,0.63 0.451,1.149 1.008,1.149 l 13.684,0 c 0.557,0 0.702,-0.519 1.008,-1.149 L 0,0 z"
               style="fill:#9f1d68;fill-opacity:1;fill-rule:nonzero;stroke:none"
               id="path3372" /></g></g></g><g
         id="g4022"
         transform="matrix(2.9170438,0,0,2.9170438,-355.43146,-791.36926)"
         inkscape:export-filename="/Users/tom/Documents/home/graphics/tech-girls/animate/logo-text-282x100.png"
         inkscape:export-xdpi="47.592644"
         inkscape:export-ydpi="47.592644"><g
           transform="matrix(0.13216103,0,0,0.13231974,189.66875,420.6736)"
           id="g3700"><path
             id="path3702"
             style="fill:#3a393a;fill-opacity:1;fill-rule:nonzero;stroke:none"
             d="m 0,0 0,-20.481 -0.576,0 0,20.481 -2.843,0 0,0.504 6.191,0 L 2.772,0 0,0 z"
             inkscape:connector-curvature="0" /></g><g
           id="g3704"
           transform="matrix(0.13216103,0,0,0.13231974,144.04057,386.12398)"><g
             clip-path="url(#clipPath3708)"
             id="g3706"><g
               transform="translate(357.8318,251.4235)"
               id="g3712"><path
                 id="path3714"
                 style="fill:#3a393a;fill-opacity:1;fill-rule:nonzero;stroke:none"
                 d="m 0,0 -5.399,0 0,-7.774 c 0,-1.584 0.864,-2.736 2.448,-2.736 1.512,0 2.375,1.008 2.375,2.664 l 0,2.915 0.576,0 0,-2.915 c 0,-1.908 -1.116,-3.24 -2.951,-3.24 -1.764,0 -3.024,1.404 -3.024,3.312 l 0,15.045 c 0,1.944 1.152,3.276 3.024,3.276 C -1.116,10.547 0,9.252 0,7.308 L 0,0 z m -0.576,7.308 c 0,1.655 -0.792,2.7 -2.375,2.7 -1.44,0 -2.448,-1.153 -2.448,-2.737 l 0,-6.73 4.823,0 0,6.767 z"
                 inkscape:connector-curvature="0" /></g><g
               transform="translate(367.6599,258.7311)"
               id="g3716"><path
                 id="path3718"
                 style="fill:#3a393a;fill-opacity:1;fill-rule:nonzero;stroke:none"
                 d="m 0,0 c 0,1.655 -0.792,2.7 -2.375,2.7 -1.44,0 -2.448,-1.152 -2.448,-2.736 l 0,-15.046 c 0,-1.584 0.864,-2.735 2.448,-2.735 1.511,0 2.375,1.007 2.375,2.664 l 0,2.699 0.576,0 0,-2.699 c 0,-1.909 -1.116,-3.241 -2.951,-3.241 -1.764,0 -3.024,1.405 -3.024,3.312 l 0,15.046 c 0,1.943 1.152,3.275 3.024,3.275 1.835,0 2.951,-1.295 2.951,-3.239 l 0,-2.7 L 0,-2.7 0,0 z"
                 inkscape:connector-curvature="0" /></g></g></g><g
           transform="matrix(0.13216103,0,0,0.13231974,194.12045,417.96349)"
           id="g3720"><path
             id="path3722"
             style="fill:#3a393a;fill-opacity:1;fill-rule:nonzero;stroke:none"
             d="m 0,0 -0.576,0 0,10.007 -5.219,0 0,-10.007 -0.576,0 0,21.058 0.576,0 0,-10.475 5.219,0 0,10.475 0.576,0 L 0,0 z"
             inkscape:connector-curvature="0" /></g><path
           id="path3724"
           style="fill:#3a393a;fill-opacity:1;fill-rule:nonzero;stroke:none"
           d="m 194.67132,419.20656 0.41393,0 0,0.0762 -0.41393,0 0,-0.0762 z"
           inkscape:connector-curvature="0" /><path
           id="path3726"
           style="fill:none;stroke:#211c1d;stroke-width:0.06612018;stroke-linecap:butt;stroke-linejoin:miter;stroke-miterlimit:10;stroke-opacity:1;stroke-dasharray:none"
           d="m 195.08538,419.20656 -0.41392,0 0,0.0762 0.41392,0 0,-0.0762 z"
           inkscape:connector-curvature="0" /><g
           id="g3728"
           transform="matrix(0.13216103,0,0,0.13231974,144.04057,386.12398)"><g
             clip-path="url(#clipPath3732)"
             id="g3730"><g
               transform="translate(394.4894,250.2008)"
               id="g3736"><path
                 id="path3738"
                 style="fill:#3a393a;fill-opacity:1;fill-rule:nonzero;stroke:none"
                 d="m 0,0 0,0.539 2.087,0 0,-7.162 c 0,-1.908 -1.295,-3.24 -3.095,-3.24 -1.764,0 -3.168,1.404 -3.168,3.311 l 0,15.046 c 0,1.944 1.296,3.276 3.168,3.276 1.836,0 3.095,-1.295 3.095,-3.24 l 0,-2.196 -0.575,0 0,2.196 c 0,1.693 -0.972,2.7 -2.52,2.7 -1.584,0 -2.592,-1.224 -2.592,-2.736 l 0,-15.046 c 0,-1.584 1.008,-2.735 2.592,-2.735 1.512,0 2.52,1.008 2.52,2.664 L 1.512,0 0,0 z"
                 inkscape:connector-curvature="0" /></g><g
               transform="translate(394.4894,250.2008)"
               id="g3740"><path
                 id="path3742"
                 style="fill:none;stroke:#211c1d;stroke-width:0.5;stroke-linecap:butt;stroke-linejoin:miter;stroke-miterlimit:10;stroke-opacity:1;stroke-dasharray:none"
                 d="m 0,0 0,0.539 2.087,0 0,-7.162 c 0,-1.908 -1.295,-3.24 -3.095,-3.24 -1.764,0 -3.168,1.404 -3.168,3.311 l 0,15.046 c 0,1.944 1.296,3.276 3.168,3.276 1.836,0 3.095,-1.295 3.095,-3.24 l 0,-2.196 -0.575,0 0,2.196 c 0,1.693 -0.972,2.7 -2.52,2.7 -1.584,0 -2.592,-1.224 -2.592,-2.736 l 0,-15.046 c 0,-1.584 1.008,-2.735 2.592,-2.735 1.512,0 2.52,1.008 2.52,2.664 L 1.512,0 0,0 z"
                 inkscape:connector-curvature="0" /></g></g></g><path
           id="path3744"
           style="fill:#3a393a;fill-opacity:1;fill-rule:nonzero;stroke:none"
           d="m 197.03555,417.96355 0.0761,0 0,2.78625 -0.0761,0 0,-2.78625 z"
           inkscape:connector-curvature="0" /><path
           id="path3746"
           style="fill:none;stroke:#211c1d;stroke-width:0.06612018;stroke-linecap:butt;stroke-linejoin:miter;stroke-miterlimit:10;stroke-opacity:1;stroke-dasharray:none"
           d="m 197.03555,420.7498 0.0761,0 0,-2.78639 -0.0761,0 0,2.78639 z"
           inkscape:connector-curvature="0" /><g
           id="g3748"
           transform="matrix(0.13216103,0,0,0.13231974,144.04057,386.12398)"><g
             clip-path="url(#clipPath3752)"
             id="g3750"><g
               transform="translate(411.6609,240.6256)"
               id="g3756"><path
                 id="path3758"
                 style="fill:#3a393a;fill-opacity:1;fill-rule:nonzero;stroke:none"
                 d="m 0,0 c -0.144,0.756 -0.216,1.62 -0.216,2.411 l 0,5.04 c 0,1.583 -1.008,2.447 -2.592,2.447 l -2.159,0 0,-9.898 -0.576,0 0,21.093 3.275,0 c 1.764,0 2.52,-1.332 2.52,-2.879 l 0,-5.436 c 0,-1.404 -0.468,-2.232 -1.8,-2.664 C 0,9.719 0.36,8.495 0.36,7.451 l 0,-5.04 C 0.36,1.655 0.468,0.72 0.576,0 L 0,0 z m -0.288,12.778 0,5.436 c 0,1.332 -0.612,2.375 -1.98,2.375 l -2.699,0 0,-10.187 2.159,0 c 1.728,0 2.52,0.792 2.52,2.376"
                 inkscape:connector-curvature="0" /></g><g
               transform="translate(411.6609,240.6256)"
               id="g3760"><path
                 id="path3762"
                 style="fill:none;stroke:#211c1d;stroke-width:0.5;stroke-linecap:butt;stroke-linejoin:miter;stroke-miterlimit:10;stroke-opacity:1;stroke-dasharray:none"
                 d="m 0,0 c -0.144,0.756 -0.216,1.62 -0.216,2.411 l 0,5.04 c 0,1.583 -1.008,2.447 -2.592,2.447 l -2.159,0 0,-9.898 -0.576,0 0,21.093 3.275,0 c 1.764,0 2.52,-1.332 2.52,-2.879 l 0,-5.436 c 0,-1.404 -0.468,-2.232 -1.8,-2.664 C 0,9.719 0.36,8.495 0.36,7.451 l 0,-5.04 C 0.36,1.655 0.468,0.72 0.576,0 L 0,0 z m -0.288,12.778 0,5.436 c 0,1.332 -0.612,2.375 -1.98,2.375 l -2.699,0 0,-10.187 2.159,0 c 1.728,0 2.52,0.792 2.52,2.376 z"
                 inkscape:connector-curvature="0" /></g></g></g><g
           transform="matrix(0.13216103,0,0,0.13231974,199.69788,417.96349)"
           id="g3764"><path
             id="path3766"
             style="fill:#3a393a;fill-opacity:1;fill-rule:nonzero;stroke:none"
             d="m 0,0 -4.535,0 0,21.058 0.575,0 0,-20.483 3.96,0 L 0,0 z"
             inkscape:connector-curvature="0" /></g><g
           transform="matrix(0.13216103,0,0,0.13231974,199.69788,417.96349)"
           id="g3768"><path
             id="path3770"
             style="fill:none;stroke:#211c1d;stroke-width:0.5;stroke-linecap:butt;stroke-linejoin:miter;stroke-miterlimit:10;stroke-opacity:1;stroke-dasharray:none"
             d="m 0,0 -4.535,0 0,21.058 0.575,0 0,-20.483 3.96,0 L 0,0 z"
             inkscape:connector-curvature="0" /></g><g
           id="g3772"
           transform="matrix(0.13216103,0,0,0.13231974,144.04057,386.12398)"><g
             clip-path="url(#clipPath3776)"
             id="g3774"><g
               transform="translate(425.2874,243.6852)"
               id="g3780"><path
                 id="path3782"
                 style="fill:#3a393a;fill-opacity:1;fill-rule:nonzero;stroke:none"
                 d="m 0,0 c 0,-1.836 0.935,-2.951 2.627,-2.951 1.656,0 2.628,1.151 2.628,3.096 0,2.375 -1.152,4.57 -2.664,7.162 l -0.216,0.36 c -1.367,2.268 -2.663,4.427 -2.663,7.127 0,2.196 1.26,3.6 3.24,3.6 1.691,0 2.879,-1.332 2.879,-3.384 l 0,-1.367 -0.576,0 0,1.367 c 0,1.728 -0.9,2.844 -2.303,2.844 -1.692,0 -2.664,-1.188 -2.664,-3.06 0,-2.556 1.151,-4.535 2.555,-6.839 L 3.06,7.595 c 1.583,-2.663 2.771,-4.931 2.771,-7.45 0,-2.161 -1.296,-3.637 -3.204,-3.637 -1.979,0 -3.203,1.404 -3.203,3.492 l 0,1.187 L 0,1.187 0,0 z"
                 inkscape:connector-curvature="0" /></g><g
               transform="translate(425.2874,243.6852)"
               id="g3784"><path
                 id="path3786"
                 style="fill:none;stroke:#211c1d;stroke-width:0.5;stroke-linecap:butt;stroke-linejoin:miter;stroke-miterlimit:10;stroke-opacity:1;stroke-dasharray:none"
                 d="m 0,0 c 0,-1.836 0.935,-2.951 2.627,-2.951 1.656,0 2.628,1.151 2.628,3.096 0,2.375 -1.152,4.57 -2.664,7.162 l -0.216,0.36 c -1.367,2.268 -2.663,4.427 -2.663,7.127 0,2.196 1.26,3.6 3.24,3.6 1.691,0 2.879,-1.332 2.879,-3.384 l 0,-1.367 -0.576,0 0,1.367 c 0,1.728 -0.9,2.844 -2.303,2.844 -1.692,0 -2.664,-1.188 -2.664,-3.06 0,-2.556 1.151,-4.535 2.555,-6.839 L 3.06,7.595 c 1.583,-2.663 2.771,-4.931 2.771,-7.45 0,-2.161 -1.296,-3.637 -3.204,-3.637 -1.979,0 -3.203,1.404 -3.203,3.492 l 0,1.187 L 0,1.187 0,0 z"
                 inkscape:connector-curvature="0" /></g></g></g></g></g></g></svg>