<?xml version="1.0" encoding="UTF-8" standalone="no"?>
<!-- Created with Inkscape (http://www.inkscape.org/) -->

<svg
   xmlns:dc="http://purl.org/dc/elements/1.1/"
   xmlns:cc="http://creativecommons.org/ns#"
   xmlns:rdf="http://www.w3.org/1999/02/22-rdf-syntax-ns#"
   xmlns:svg="http://www.w3.org/2000/svg"
   xmlns="http://www.w3.org/2000/svg"
   xmlns:sodipodi="http://sodipodi.sourceforge.net/DTD/sodipodi-0.dtd"
   xmlns:inkscape="http://www.inkscape.org/namespaces/inkscape"
   id="svg3023"
   version="1.1"
   inkscape:version="0.48.2 r9819"
   width="765"
   height="765"
   xml:space="preserve"
   sodipodi:docname="tech-girl-body.svg"><metadata
     id="metadata3029"><rdf:RDF><cc:Work
         rdf:about=""><dc:format>image/svg+xml</dc:format><dc:type
           rdf:resource="http://purl.org/dc/dcmitype/StillImage" /><dc:title></dc:title></cc:Work></rdf:RDF></metadata><defs
     id="defs3027"><clipPath
       clipPathUnits="userSpaceOnUse"
       id="clipPath3051"><path
         d="M 0,0 612,0 612,612 0,612 0,0 z"
         id="path3053" /></clipPath><clipPath
       clipPathUnits="userSpaceOnUse"
       id="clipPath3107"><path
         d="M 0,0 612,0 612,612 0,612 0,0 z"
         id="path3109" /></clipPath><clipPath
       clipPathUnits="userSpaceOnUse"
       id="clipPath3125"><path
         d="M 0,0 612,0 612,612 0,612 0,0 z"
         id="path3127" /></clipPath><clipPath
       clipPathUnits="userSpaceOnUse"
       id="clipPath3139"><path
         d="M 0,0 612,0 612,612 0,612 0,0 z"
         id="path3141" /></clipPath><clipPath
       clipPathUnits="userSpaceOnUse"
       id="clipPath3155"><path
         d="M 0,0 612,0 612,612 0,612 0,0 z"
         id="path3157" /></clipPath><clipPath
       clipPathUnits="userSpaceOnUse"
       id="clipPath3215"><path
         d="M 0,0 612,0 612,612 0,612 0,0 z"
         id="path3217" /></clipPath><clipPath
       clipPathUnits="userSpaceOnUse"
       id="clipPath3233"><path
         d="M 0,0 612,0 612,612 0,612 0,0 z"
         id="path3235" /></clipPath><clipPath
       clipPathUnits="userSpaceOnUse"
       id="clipPath3247"><path
         d="M 0,0 612,0 612,612 0,612 0,0 z"
         id="path3249" /></clipPath><clipPath
       clipPathUnits="userSpaceOnUse"
       id="clipPath3263"><path
         d="M 0,0 612,0 612,612 0,612 0,0 z"
         id="path3265" /></clipPath><clipPath
       clipPathUnits="userSpaceOnUse"
       id="clipPath3323"><path
         d="M 0,0 612,0 612,612 0,612 0,0 z"
         id="path3325" /></clipPath><clipPath
       clipPathUnits="userSpaceOnUse"
       id="clipPath3341"><path
         d="M 0,0 612,0 612,612 0,612 0,0 z"
         id="path3343" /></clipPath><clipPath
       clipPathUnits="userSpaceOnUse"
       id="clipPath3357"><path
         d="M 0,0 612,0 612,612 0,612 0,0 z"
         id="path3359" /></clipPath><clipPath
       clipPathUnits="userSpaceOnUse"
       id="clipPath3373"><path
         d="M 0,0 612,0 612,612 0,612 0,0 z"
         id="path3375" /></clipPath><clipPath
       clipPathUnits="userSpaceOnUse"
       id="clipPath3429"><path
         d="M 0,0 612,0 612,612 0,612 0,0 z"
         id="path3431" /></clipPath><clipPath
       clipPathUnits="userSpaceOnUse"
       id="clipPath3453"><path
         d="M 0,0 612,0 612,612 0,612 0,0 z"
         id="path3455" /></clipPath><clipPath
       clipPathUnits="userSpaceOnUse"
       id="clipPath3473"><path
         d="M 0,0 612,0 612,612 0,612 0,0 z"
         id="path3475" /></clipPath><clipPath
       clipPathUnits="userSpaceOnUse"
       id="clipPath3497"><path
         d="M 0,0 612,0 612,612 0,612 0,0 z"
         id="path3499" /></clipPath></defs><sodipodi:namedview
     pagecolor="#ffffff"
     bordercolor="#666666"
     borderopacity="1"
     objecttolerance="10"
     gridtolerance="10"
     guidetolerance="10"
     inkscape:pageopacity="0"
     inkscape:pageshadow="2"
     inkscape:window-width="1148"
     inkscape:window-height="902"
     id="namedview3025"
     showgrid="false"
     inkscape:zoom="1.5973856"
     inkscape:cx="539.7271"
     inkscape:cy="251.46363"
     inkscape:window-x="0"
     inkscape:window-y="0"
     inkscape:window-maximized="0"
     inkscape:current-layer="g3049" /><g
     id="g3031"
     inkscape:groupmode="layer"
     inkscape:label="tech_girls_v2"
     transform="matrix(1.25,0,0,-1.25,0,765)"><g
       transform="matrix(7.5665271,0,0,7.5574515,-1232.0975,-2946.0588)"
       clip-path="url(#clipPath3051)"
       id="g3049"><g
         id="g3666"><g
           id="g3071"
           transform="translate(222.9577,417.318)"><path
             d="m 0,0 -13.984,0 c -1.107,0 -2.008,0.901 -2.008,2.009 l 0,1.982 c 0,1.108 0.901,2.009 2.008,2.009 L 0,6 C 1.107,6 2.008,5.099 2.008,3.991 l 0,-1.982 C 2.008,0.901 1.107,0 0,0 M -13.984,4 -13.992,2.009 0,2 0.003,2 0.008,3.991 -13.984,4 z"
             style="fill:#9f1d68;fill-opacity:1;fill-rule:nonzero;stroke:none"
             id="path3073"
             inkscape:connector-curvature="0" /></g><g
           id="g3075"
           transform="translate(224.9656,408.7575)"><path
             d="m 0,0 c 0,-0.795 -0.645,-1.44 -1.44,-1.44 l -14.12,0 C -16.355,-1.44 -17,-0.795 -17,0 l 0,2.121 c 0,0.795 0.645,1.439 1.44,1.439 l 14.12,0 C -0.645,3.56 0,2.916 0,2.121 L 0,0 z"
             style="fill:#cc2299;fill-opacity:1;fill-rule:nonzero;stroke:none"
             id="path3077"
             inkscape:connector-curvature="0" /></g><g
           id="g3091"
           transform="translate(227.9801,410.2448)"><path
             d="m 0,0 c 0,-0.558 -0.451,-0.927 -1.007,-0.927 l -21.285,0 c -0.557,0 -1.008,0.369 -1.008,0.927 l 3.8,7.924 c 0.306,0.63 0.451,1.149 1.008,1.149 l 13.684,0 c 0.557,0 0.702,-0.519 1.008,-1.149 L 0,0 z"
             style="fill:#9f1d68;fill-opacity:1;fill-rule:nonzero;stroke:none"
             id="path3093"
             inkscape:connector-curvature="0" /></g></g></g></g></svg>