<?xml version="1.0" encoding="UTF-8" standalone="no"?>
<!-- Created with Inkscape (http://www.inkscape.org/) -->

<svg
   xmlns:dc="http://purl.org/dc/elements/1.1/"
   xmlns:cc="http://creativecommons.org/ns#"
   xmlns:rdf="http://www.w3.org/1999/02/22-rdf-syntax-ns#"
   xmlns:svg="http://www.w3.org/2000/svg"
   xmlns="http://www.w3.org/2000/svg"
   xmlns:sodipodi="http://sodipodi.sourceforge.net/DTD/sodipodi-0.dtd"
   xmlns:inkscape="http://www.inkscape.org/namespaces/inkscape"
   width="800"
   height="800"
   id="svg3378"
   version="1.1"
   inkscape:version="0.48.2 r9819"
   sodipodi:docname="New document 3">
  <defs
     id="defs3380" />
  <sodipodi:namedview
     id="base"
     pagecolor="#ffffff"
     bordercolor="#666666"
     borderopacity="1.0"
     inkscape:pageopacity="0.0"
     inkscape:pageshadow="2"
     inkscape:zoom="0.35"
     inkscape:cx="375"
     inkscape:cy="520"
     inkscape:document-units="px"
     inkscape:current-layer="layer1"
     showgrid="false"
     inkscape:window-width="639"
     inkscape:window-height="610"
     inkscape:window-x="20"
     inkscape:window-y="20"
     inkscape:window-maximized="0" />
  <metadata
     id="metadata3383">
    <rdf:RDF>
      <cc:Work
         rdf:about="">
        <dc:format>image/svg+xml</dc:format>
        <dc:type
           rdf:resource="http://purl.org/dc/dcmitype/StillImage" />
        <dc:title></dc:title>
      </cc:Work>
    </rdf:RDF>
  </metadata>
  <g
     inkscape:label="Layer 1"
     inkscape:groupmode="layer"
     id="layer1"
     transform="translate(0,-252.36218)">
    <g
       id="g44"
       transform="matrix(13.461606,0,0,-13.461606,541.71182,942.47832)">
      <path
         d="m 0,0 c 0,-0.795 -0.646,-1.439 -1.44,-1.439 l -14.12,0 C -16.354,-1.439 -17,-0.795 -17,0 l 0,2.121 c 0,0.795 0.646,1.44 1.44,1.44 l 14.12,0 C -0.646,3.561 0,2.916 0,2.121 L 0,0 z"
         style="fill:#fbb24e;fill-opacity:1;fill-rule:nonzero;stroke:none"
         id="path46"
         inkscape:connector-curvature="0" />
    </g>
    <g
       id="g48"
       transform="matrix(13.461606,0,0,-13.461606,333.16193,773.39247)">
      <path
         d="M 0,0 13.991,-0.009 13.987,-2 13.983,-2 -0.009,-1.991 0,0 z m 15.089,-3.665 c 0.543,0.359 0.902,0.975 0.902,1.674 l 0,1.982 C 15.991,1.099 15.091,2 13.983,2 L 0,2 C -1.106,2 -2.009,1.099 -2.009,-0.009 l 0,-1.982 c 0,-0.699 0.361,-1.315 0.904,-1.674 l -3.553,-7.408 c 0,-0.558 0.451,-0.927 1.009,-0.927 l 21.285,0 c 0.554,0 1.006,0.369 1.006,0.927 l -3.553,7.408 z"
         style="fill:#f58736;fill-opacity:1;fill-rule:nonzero;stroke:none"
         id="path50"
         inkscape:connector-curvature="0" />
    </g>
    <g
       id="g52"
       transform="matrix(13.461606,0,0,-13.461606,333.16193,773.39247)">
      <path
         d="M 0,0 13.991,-0.009 13.987,-2 13.983,-2 -0.009,-1.991 0,0 z"
         style="fill:#ffffff;fill-opacity:1;fill-rule:nonzero;stroke:none"
         id="path54"
         inkscape:connector-curvature="0" />
    </g>
    <g
       id="g56"
       transform="matrix(13.461606,0,0,-13.461606,771.41389,545.99106)">
      <path
         d="M 0,0 C -0.582,2.303 -2.921,3.698 -5.223,3.117 -5.909,2.943 -6.501,2.601 -6.998,2.163 l -4.985,2.227 -1.607,6.359 c -0.533,2.116 -2.833,3.54 -5.082,2.972 L -45.141,7.034 c -2.249,-0.567 -3.596,-2.913 -3.061,-5.03 l 1.609,-6.367 -3.322,-4.316 c -0.644,0.15 -1.327,0.17 -2.013,-0.003 -2.302,-0.582 -3.697,-2.921 -3.116,-5.222 0.582,-2.304 2.92,-3.699 5.222,-3.117 2.304,0.582 3.698,2.919 3.116,5.222 -0.024,0.097 -0.069,0.182 -0.1,0.276 l 1.522,1.976 1.276,-5.049 c 0.535,-2.115 2.791,-3.37 5.04,-2.802 l 26.468,6.686 c 2.25,0.568 3.639,2.745 3.104,4.86 l -1.278,5.058 2.292,-1.023 c 0.018,-0.096 0.019,-0.192 0.043,-0.288 0.581,-2.303 2.918,-3.699 5.224,-3.117 C -0.813,-4.641 0.58,-2.303 0,0"
         style="fill:#fbb24e;fill-opacity:1;fill-rule:nonzero;stroke:none"
         id="path58"
         inkscape:connector-curvature="0" />
    </g>
    <g
       id="g60"
       transform="matrix(13.461606,0,0,-13.461606,258.68951,613.5359)">
      <path
         d="m 0,0 c -0.342,-0.573 -0.519,-1.199 -0.543,-1.822 l -2.203,-1.05 2.496,-0.587 C 0.057,-4.206 0.596,-4.865 1.344,-5.312 3.18,-6.407 5.557,-5.807 6.652,-3.969 7.75,-2.132 7.147,0.246 5.312,1.342 3.475,2.438 1.098,1.836 0,0"
         style="fill:#ffffff;fill-opacity:1;fill-rule:nonzero;stroke:none"
         id="path62"
         inkscape:connector-curvature="0" />
    </g>
    <g
       id="g64"
       transform="matrix(13.461606,0,0,-13.461606,529.47253,545.12403)">
      <path
         d="M 0,0 C 0.573,-0.344 1.025,-0.81 1.344,-1.346 L 3.78,-1.226 1.862,-2.924 C 1.947,-3.729 1.787,-4.564 1.342,-5.312 0.246,-7.148 -2.133,-7.748 -3.97,-6.652 -5.808,-5.558 -6.406,-3.18 -5.312,-1.343 -4.215,0.495 -1.836,1.096 0,0"
         style="fill:#ffffff;fill-opacity:1;fill-rule:nonzero;stroke:none"
         id="path66"
         inkscape:connector-curvature="0" />
    </g>
  </g>
</svg>
