<?xml version="1.0" encoding="UTF-8" standalone="no"?>
<!-- Created with Inkscape (http://www.inkscape.org/) -->

<svg
   xmlns:dc="http://purl.org/dc/elements/1.1/"
   xmlns:cc="http://creativecommons.org/ns#"
   xmlns:rdf="http://www.w3.org/1999/02/22-rdf-syntax-ns#"
   xmlns:svg="http://www.w3.org/2000/svg"
   xmlns="http://www.w3.org/2000/svg"
   xmlns:sodipodi="http://sodipodi.sourceforge.net/DTD/sodipodi-0.dtd"
   xmlns:inkscape="http://www.inkscape.org/namespaces/inkscape"
   width="800"
   height="800"
   id="svg3723"
   version="1.1"
   inkscape:version="0.48.2 r9819"
   sodipodi:docname="New document 9">
  <defs
     id="defs3725" />
  <sodipodi:namedview
     id="base"
     pagecolor="#ffffff"
     bordercolor="#666666"
     borderopacity="1.0"
     inkscape:pageopacity="0.0"
     inkscape:pageshadow="2"
     inkscape:zoom="0.35"
     inkscape:cx="375"
     inkscape:cy="520"
     inkscape:document-units="px"
     inkscape:current-layer="layer1"
     showgrid="false"
     inkscape:window-width="711"
     inkscape:window-height="674"
     inkscape:window-x="462"
     inkscape:window-y="116"
     inkscape:window-maximized="0" />
  <metadata
     id="metadata3728">
    <rdf:RDF>
      <cc:Work
         rdf:about="">
        <dc:format>image/svg+xml</dc:format>
        <dc:type
           rdf:resource="http://purl.org/dc/dcmitype/StillImage" />
        <dc:title></dc:title>
      </cc:Work>
    </rdf:RDF>
  </metadata>
  <g
     inkscape:label="Layer 1"
     inkscape:groupmode="layer"
     id="layer1"
     transform="translate(0,-252.36218)">
    <g
       id="g3836"
       transform="matrix(2.4567132,0,0,2.4567132,-355.07278,-682.68993)">
      <g
         transform="matrix(3.3925396,0,0,-3.3925396,336.57724,560.23648)"
         id="g20">
        <path
           inkscape:connector-curvature="0"
           id="path22"
           style="fill:#cd4e9a;fill-opacity:1;fill-rule:nonzero;stroke:none"
           d="m 0,0 c 0,-0.795 -0.645,-1.439 -1.44,-1.439 l -14.12,0 C -16.355,-1.439 -17,-0.795 -17,0 l 0,2.121 c 0,0.795 0.645,1.44 1.44,1.44 l 14.12,0 C -0.645,3.561 0,2.916 0,2.121 L 0,0 z" />
      </g>
      <g
         transform="matrix(3.3925396,0,0,-3.3925396,284.01934,517.62415)"
         id="g24">
        <path
           inkscape:connector-curvature="0"
           id="path26"
           style="fill:#a53d70;fill-opacity:1;fill-rule:nonzero;stroke:none"
           d="M 0,0 13.992,-0.009 13.987,-2 13.984,-2 -0.008,-1.991 0,0 z m 15.089,-3.665 c 0.543,0.359 0.903,0.975 0.903,1.674 l 0,1.982 C 15.992,1.099 15.091,2 13.984,2 L 0,2 C -1.107,2 -2.008,1.099 -2.008,-0.009 l 0,-1.982 c 0,-0.699 0.36,-1.315 0.903,-1.674 l -3.553,-7.408 c 0,-0.558 0.451,-0.927 1.008,-0.927 l 21.285,0 c 0.556,0 1.007,0.369 1.007,0.927 l -3.553,7.408 z" />
      </g>
      <g
         transform="matrix(3.3925396,0,0,-3.3925396,284.01934,517.62415)"
         id="g28">
        <path
           inkscape:connector-curvature="0"
           id="path30"
           style="fill:#ffffff;fill-opacity:1;fill-rule:nonzero;stroke:none"
           d="M 0,0 13.992,-0.009 13.987,-2 13.984,-2 -0.008,-1.991 0,0 z" />
      </g>
      <g
         transform="matrix(3.3925396,0,0,-3.3925396,394.46417,460.31536)"
         id="g32">
        <path
           inkscape:connector-curvature="0"
           id="path34"
           style="fill:#cd4e9a;fill-opacity:1;fill-rule:nonzero;stroke:none"
           d="M 0,0 C -0.582,2.303 -2.92,3.698 -5.222,3.117 -5.909,2.943 -6.5,2.601 -6.997,2.163 l -4.986,2.227 -1.606,6.359 c -0.534,2.116 -2.833,3.54 -5.082,2.972 l -26.47,-6.687 c -2.249,-0.567 -3.595,-2.913 -3.061,-5.03 l 1.609,-6.367 -3.321,-4.316 c -0.645,0.15 -1.328,0.17 -2.013,-0.003 -2.302,-0.582 -3.698,-2.921 -3.116,-5.222 0.582,-2.304 2.919,-3.699 5.222,-3.117 2.304,0.582 3.697,2.919 3.116,5.222 -0.024,0.097 -0.069,0.182 -0.1,0.276 l 1.522,1.976 1.276,-5.049 c 0.534,-2.115 2.791,-3.37 5.04,-2.802 l 26.467,6.686 c 2.25,0.568 3.639,2.745 3.104,4.86 l -1.277,5.058 2.292,-1.023 c 0.017,-0.096 0.018,-0.192 0.043,-0.288 0.581,-2.303 2.918,-3.699 5.223,-3.117 C -0.813,-4.641 0.581,-2.303 0,0" />
      </g>
      <g
         transform="matrix(3.3925396,0,0,-3.3925396,265.24945,477.33774)"
         id="g36">
        <path
           inkscape:connector-curvature="0"
           id="path38"
           style="fill:#ffffff;fill-opacity:1;fill-rule:nonzero;stroke:none"
           d="m 0,0 c -0.342,-0.573 -0.518,-1.199 -0.543,-1.822 l -2.202,-1.05 2.495,-0.587 C 0.057,-4.206 0.596,-4.865 1.344,-5.312 3.18,-6.407 5.557,-5.807 6.653,-3.969 7.75,-2.132 7.148,0.246 5.312,1.342 3.475,2.438 1.098,1.836 0,0" />
      </g>
      <g
         transform="matrix(3.3925396,0,0,-3.3925396,333.49142,460.09686)"
         id="g40">
        <path
           inkscape:connector-curvature="0"
           id="path42"
           style="fill:#ffffff;fill-opacity:1;fill-rule:nonzero;stroke:none"
           d="m 0,0 c 0.574,-0.344 1.026,-0.81 1.345,-1.346 l 2.436,0.12 -1.918,-1.698 C 1.948,-3.729 1.787,-4.564 1.342,-5.312 0.246,-7.148 -2.132,-7.748 -3.969,-6.652 -5.807,-5.558 -6.406,-3.18 -5.311,-1.343 -4.215,0.495 -1.836,1.096 0,0" />
      </g>
      <g
         transform="matrix(3.3925396,0,0,-3.3925396,157.55125,606.74956)"
         id="g92">
        <path
           inkscape:connector-curvature="0"
           id="path94"
           style="fill:#4d4c4e;fill-opacity:1;fill-rule:nonzero;stroke:none"
           d="m 0,0 0,-0.504 2.844,0 0,-20.481 0.575,0 0,20.481 2.772,0 L 6.191,0 0,0 z" />
      </g>
      <g
         transform="matrix(3.3925396,0,0,-3.3925396,211.84681,641.31107)"
         id="g96">
        <path
           inkscape:connector-curvature="0"
           id="path98"
           style="fill:#4d4c4e;fill-opacity:1;fill-rule:nonzero;stroke:none"
           d="m 0,0 -5.399,0 0,-7.774 c 0,-1.584 0.864,-2.736 2.448,-2.736 1.512,0 2.375,1.008 2.375,2.664 l 0,2.916 0.576,0 0,-2.916 c 0,-1.908 -1.116,-3.24 -2.951,-3.24 -1.764,0 -3.024,1.404 -3.024,3.312 l 0,15.045 c 0,1.944 1.152,3.276 3.024,3.276 C -1.116,10.547 0,9.252 0,7.308 L 0,0 z m -0.576,7.308 c 0,1.655 -0.792,2.7 -2.375,2.7 -1.44,0 -2.448,-1.154 -2.448,-2.737 l 0,-6.73 4.823,0 0,6.767 z" />
      </g>
      <g
         transform="matrix(3.3925396,0,0,-3.3925396,245.18904,616.51975)"
         id="g100">
        <path
           inkscape:connector-curvature="0"
           id="path102"
           style="fill:#4d4c4e;fill-opacity:1;fill-rule:nonzero;stroke:none"
           d="m 0,0 c 0,1.655 -0.792,2.7 -2.376,2.7 -1.439,0 -2.447,-1.152 -2.447,-2.736 l 0,-15.046 c 0,-1.584 0.864,-2.736 2.447,-2.736 1.512,0 2.376,1.008 2.376,2.664 l 0,2.699 0.576,0 0,-2.699 c 0,-1.908 -1.116,-3.24 -2.952,-3.24 -1.763,0 -3.023,1.404 -3.023,3.312 l 0,15.046 c 0,1.943 1.151,3.275 3.023,3.275 1.836,0 2.952,-1.295 2.952,-3.239 l 0,-2.7 L 0,-2.7 0,0 z" />
      </g>
      <g
         transform="matrix(3.3925396,0,0,-3.3925396,281.4719,606.50429)"
         id="g104">
        <path
           inkscape:connector-curvature="0"
           id="path106"
           style="fill:#4d4c4e;fill-opacity:1;fill-rule:nonzero;stroke:none"
           d="m 0,0 0,-10.475 -5.219,0 0,10.475 -0.576,0 0,-21.057 0.576,0 0,10.006 5.219,0 0,-10.006 0.576,0 L 0.576,0 0,0 z" />
      </g>
      <path
         inkscape:connector-curvature="0"
         id="path108"
         style="fill:#4d4c4e;fill-opacity:1;fill-rule:nonzero;stroke:none"
         d="m 297.56814,646.07284 10.62544,0 0,-1.95411 -10.62544,0 0,1.95411 z" />
      <g
         transform="matrix(3.3925396,0,0,-3.3925396,332.79049,604.68217)"
         id="g110">
        <path
           inkscape:connector-curvature="0"
           id="path112"
           style="fill:#4d4c4e;fill-opacity:1;fill-rule:nonzero;stroke:none"
           d="m 0,0 c -2.012,0 -3.418,-1.449 -3.418,-3.525 l 0,-15.046 c 0,-2.031 1.469,-3.562 3.418,-3.562 1.938,0 3.345,1.468 3.345,3.49 l 0,7.413 -2.587,0 0,-1.04 1.512,0 0,-6.373 c 0,-1.488 -0.87,-2.414 -2.27,-2.414 -1.401,0 -2.342,1 -2.342,2.486 l 0,15.046 c 0,1.463 0.963,2.486 2.342,2.486 1.421,0 2.27,-0.916 2.27,-2.45 l 0,-2.447 1.075,0 0,2.447 C 3.345,-1.402 2,0 0,0" />
      </g>
      <path
         inkscape:connector-curvature="0"
         id="path114"
         style="fill:#4d4c4e;fill-opacity:1;fill-rule:nonzero;stroke:none"
         d="m 357.40915,678.79727 3.65037,0 0,-73.13976 -3.65037,0 0,73.13976 z" />
      <g
         transform="matrix(3.3925396,0,0,-3.3925396,378.46222,608.94285)"
         id="g116">
        <path
           inkscape:connector-curvature="0"
           id="path118"
           style="fill:#4d4c4e;fill-opacity:1;fill-rule:nonzero;stroke:none"
           d="m 0,0 2.449,0 c 1.561,0 1.73,-1.486 1.73,-2.125 l 0,-5.436 c 0,-1.47 -0.7,-2.126 -2.27,-2.126 L 0,-9.687 0,0 z m 5.327,-17.928 0,5.04 c 0,1.294 -0.505,2.208 -1.469,2.678 0.947,0.496 1.361,1.321 1.361,2.649 l 0,5.436 c 0,1.93 -1.062,3.129 -2.77,3.129 l -3.525,0 0,-21.592 1.076,0 0,9.898 1.909,0 c 1.488,0 2.342,-0.801 2.342,-2.198 l 0,-5.04 c 0,-0.84 0.078,-1.713 0.22,-2.457 l 0.039,-0.203 1.073,0 -0.043,0.287 c -0.08,0.529 -0.213,1.541 -0.213,2.373" />
      </g>
      <g
         transform="matrix(3.3925396,0,0,-3.3925396,414.01096,605.65616)"
         id="g120">
        <path
           inkscape:connector-curvature="0"
           id="path122"
           style="fill:#4d4c4e;fill-opacity:1;fill-rule:nonzero;stroke:none"
           d="m 0,0 -1.075,0 0,-21.557 5.035,0 0,1.074 -3.96,0 L 0,0 z" />
      </g>
      <g
         transform="matrix(3.3925396,0,0,-3.3925396,457.93009,622.12864)"
         id="g124">
        <path
           inkscape:connector-curvature="0"
           id="path126"
           style="fill:#4d4c4e;fill-opacity:1;fill-rule:nonzero;stroke:none"
           d="m 0,0 0,1.617 c 0,2.174 -1.257,3.634 -3.129,3.634 -2.12,0 -3.49,-1.511 -3.49,-3.85 0,-2.779 1.311,-4.954 2.699,-7.255 l 0.214,-0.358 c 1.439,-2.466 2.63,-4.699 2.63,-7.037 0,-1.808 -0.867,-2.845 -2.378,-2.845 -1.533,0 -2.377,0.959 -2.377,2.701 l 0,1.437 -1.076,0 0,-1.437 c 0,-2.274 1.355,-3.742 3.453,-3.742 2.034,0 3.454,1.599 3.454,3.886 0,2.645 -1.271,4.997 -2.808,7.58 l -0.216,0.361 c -1.522,2.496 -2.519,4.312 -2.519,6.709 0,1.76 0.902,2.811 2.414,2.811 1.266,0 2.053,-0.994 2.053,-2.595 L -1.076,0 0,0 z" />
      </g>
    </g>
  </g>
</svg>
