<?xml version="1.0" encoding="UTF-8" standalone="no"?>
<!-- Created with Inkscape (http://www.inkscape.org/) -->

<svg
   xmlns:dc="http://purl.org/dc/elements/1.1/"
   xmlns:cc="http://creativecommons.org/ns#"
   xmlns:rdf="http://www.w3.org/1999/02/22-rdf-syntax-ns#"
   xmlns:svg="http://www.w3.org/2000/svg"
   xmlns="http://www.w3.org/2000/svg"
   xmlns:xlink="http://www.w3.org/1999/xlink"
   xmlns:sodipodi="http://sodipodi.sourceforge.net/DTD/sodipodi-0.dtd"
   xmlns:inkscape="http://www.inkscape.org/namespaces/inkscape"
   width="744.09448819"
   height="1052.3622047"
   id="svg6359"
   version="1.1"
   inkscape:version="0.48.2 r9819"
   sodipodi:docname="tech-girl-sticker.svg"
   inkscape:export-filename="/Users/tom/Documents/home/graphics/tech-girl-sticker.png"
   inkscape:export-xdpi="90"
   inkscape:export-ydpi="90">
  <defs
     id="defs6361">
    <path
       style="opacity:0;fill:none;stroke:#000000;stroke-width:0.23085703px;stroke-linecap:butt;stroke-linejoin:miter;stroke-opacity:1"
       d="m 217.4558,395.18538 c -6.63547,-3.49722 -21.11869,-3.39436 -26.49141,-0.64247"
       id="path6206"
       inkscape:connector-curvature="0"
       sodipodi:nodetypes="cc"
       inkscape:export-filename="/Users/tom/Documents/home/graphics/tech-girl-sticker.png"
       inkscape:export-xdpi="90"
       inkscape:export-ydpi="90" />
    <clipPath
       clipPathUnits="userSpaceOnUse"
       id="clipPath4728">
      <path
         inkscape:connector-curvature="0"
         d="M 0,0 612,0 612,612 0,612 0,0 z"
         id="path4730" />
    </clipPath>
    <clipPath
       clipPathUnits="userSpaceOnUse"
       id="clipPath4752">
      <path
         inkscape:connector-curvature="0"
         d="M 0,0 612,0 612,612 0,612 0,0 z"
         id="path4754" />
    </clipPath>
    <clipPath
       clipPathUnits="userSpaceOnUse"
       id="clipPath4772">
      <path
         inkscape:connector-curvature="0"
         d="M 0,0 612,0 612,612 0,612 0,0 z"
         id="path4774" />
    </clipPath>
    <clipPath
       clipPathUnits="userSpaceOnUse"
       id="clipPath4796">
      <path
         inkscape:connector-curvature="0"
         d="M 0,0 612,0 612,612 0,612 0,0 z"
         id="path4798" />
    </clipPath>
    <clipPath
       clipPathUnits="userSpaceOnUse"
       id="clipPath8003">
      <path
         inkscape:connector-curvature="0"
         d="M 0,0 612,0 612,612 0,612 0,0 z"
         id="path8005" />
    </clipPath>
  </defs>
  <sodipodi:namedview
     id="base"
     pagecolor="#ffffff"
     bordercolor="#666666"
     borderopacity="1.0"
     inkscape:pageopacity="0.0"
     inkscape:pageshadow="2"
     inkscape:zoom="0.69846437"
     inkscape:cx="520.20224"
     inkscape:cy="430.8849"
     inkscape:document-units="px"
     inkscape:current-layer="layer1"
     showgrid="false"
     inkscape:window-width="1205"
     inkscape:window-height="831"
     inkscape:window-x="138"
     inkscape:window-y="52"
     inkscape:window-maximized="0" />
  <metadata
     id="metadata6364">
    <rdf:RDF>
      <cc:Work
         rdf:about="">
        <dc:format>image/svg+xml</dc:format>
        <dc:type
           rdf:resource="http://purl.org/dc/dcmitype/StillImage" />
        <dc:title></dc:title>
      </cc:Work>
    </rdf:RDF>
  </metadata>
  <g
     inkscape:label="Layer 1"
     inkscape:groupmode="layer"
     id="layer1">
    <g
       transform="matrix(1.4072866,0,0,-1.57028,-92.33292,1141.1457)"
       id="g5024"
       inkscape:export-filename="/Users/tom/Documents/home/graphics/tech-girl-sticker.png"
       inkscape:export-xdpi="90"
       inkscape:export-ydpi="90">
      <g
         transform="matrix(3.4574583,0,0,3.4574583,185.8669,300.051)"
         id="g4720">
        <path
           inkscape:connector-curvature="0"
           id="path4722"
           style="fill:#3a393a;fill-opacity:1;fill-rule:nonzero;stroke:none"
           d="m 0,0 0,-20.481 -0.576,0 0,20.481 -2.843,0 0,0.504 6.191,0 L 2.772,0 0,0 z" />
      </g>
      <g
         transform="matrix(3.4574583,0,0,3.4574583,-1007.8099,-602.71592)"
         id="g4724">
        <g
           clip-path="url(#clipPath4728)"
           id="g4726">
          <g
             transform="translate(357.8318,251.4235)"
             id="g4732">
            <path
               inkscape:connector-curvature="0"
               id="path4734"
               style="fill:#3a393a;fill-opacity:1;fill-rule:nonzero;stroke:none"
               d="m 0,0 -5.399,0 0,-7.774 c 0,-1.584 0.864,-2.736 2.448,-2.736 1.512,0 2.375,1.008 2.375,2.664 l 0,2.915 0.576,0 0,-2.915 c 0,-1.908 -1.116,-3.24 -2.951,-3.24 -1.764,0 -3.024,1.404 -3.024,3.312 l 0,15.045 c 0,1.944 1.152,3.276 3.024,3.276 C -1.116,10.547 0,9.252 0,7.308 L 0,0 z m -0.576,7.308 c 0,1.655 -0.792,2.7 -2.375,2.7 -1.44,0 -2.448,-1.153 -2.448,-2.737 l 0,-6.73 4.823,0 0,6.767 z" />
          </g>
          <g
             transform="translate(367.6599,258.7311)"
             id="g4736">
            <path
               inkscape:connector-curvature="0"
               id="path4738"
               style="fill:#3a393a;fill-opacity:1;fill-rule:nonzero;stroke:none"
               d="m 0,0 c 0,1.655 -0.792,2.7 -2.375,2.7 -1.44,0 -2.448,-1.152 -2.448,-2.736 l 0,-15.046 c 0,-1.584 0.864,-2.735 2.448,-2.735 1.511,0 2.375,1.007 2.375,2.664 l 0,2.699 0.576,0 0,-2.699 c 0,-1.909 -1.116,-3.241 -2.951,-3.241 -1.764,0 -3.024,1.405 -3.024,3.312 l 0,15.046 c 0,1.943 1.152,3.275 3.024,3.275 1.835,0 2.951,-1.295 2.951,-3.239 l 0,-2.7 L 0,-2.7 0,0 z" />
          </g>
        </g>
      </g>
      <g
         transform="matrix(3.4574583,0,0,3.4574583,302.32757,229.23706)"
         id="g4740">
        <path
           inkscape:connector-curvature="0"
           id="path4742"
           style="fill:#3a393a;fill-opacity:1;fill-rule:nonzero;stroke:none"
           d="m 0,0 -0.576,0 0,10.007 -5.219,0 0,-10.007 -0.576,0 0,21.058 0.576,0 0,-10.475 5.219,0 0,10.475 0.576,0 L 0,0 z" />
      </g>
      <path
         inkscape:connector-curvature="0"
         id="path4744"
         style="fill:#3a393a;fill-opacity:1;fill-rule:nonzero;stroke:none"
         d="m 316.73895,261.71781 10.82876,0 0,1.99149 -10.82876,0 0,-1.99149 z" />
      <path
         inkscape:connector-curvature="0"
         id="path4746"
         style="fill:none;stroke:#211c1d;stroke-width:1.72872913;stroke-linecap:butt;stroke-linejoin:miter;stroke-miterlimit:10;stroke-opacity:1;stroke-dasharray:none"
         d="m 327.57116,261.71781 -10.82875,0 0,1.99149 10.82875,0 0,-1.99149 z" />
      <g
         transform="matrix(3.4574583,0,0,3.4574583,-1007.8099,-602.71592)"
         id="g4748">
        <g
           clip-path="url(#clipPath4752)"
           id="g4750">
          <g
             transform="translate(394.4894,250.2008)"
             id="g4756">
            <path
               inkscape:connector-curvature="0"
               id="path4758"
               style="fill:#3a393a;fill-opacity:1;fill-rule:nonzero;stroke:none"
               d="m 0,0 0,0.539 2.087,0 0,-7.162 c 0,-1.908 -1.295,-3.24 -3.095,-3.24 -1.764,0 -3.168,1.404 -3.168,3.311 l 0,15.046 c 0,1.944 1.296,3.276 3.168,3.276 1.836,0 3.095,-1.295 3.095,-3.24 l 0,-2.196 -0.575,0 0,2.196 c 0,1.693 -0.972,2.7 -2.52,2.7 -1.584,0 -2.592,-1.224 -2.592,-2.736 l 0,-15.046 c 0,-1.584 1.008,-2.735 2.592,-2.735 1.512,0 2.52,1.008 2.52,2.664 L 1.512,0 0,0 z" />
          </g>
          <g
             transform="translate(394.4894,250.2008)"
             id="g4760">
            <path
               inkscape:connector-curvature="0"
               id="path4762"
               style="fill:none;stroke:#211c1d;stroke-width:0.5;stroke-linecap:butt;stroke-linejoin:miter;stroke-miterlimit:10;stroke-opacity:1;stroke-dasharray:none"
               d="m 0,0 0,0.539 2.087,0 0,-7.162 c 0,-1.908 -1.295,-3.24 -3.095,-3.24 -1.764,0 -3.168,1.404 -3.168,3.311 l 0,15.046 c 0,1.944 1.296,3.276 3.168,3.276 1.836,0 3.095,-1.295 3.095,-3.24 l 0,-2.196 -0.575,0 0,2.196 c 0,1.693 -0.972,2.7 -2.52,2.7 -1.584,0 -2.592,-1.224 -2.592,-2.736 l 0,-15.046 c 0,-1.584 1.008,-2.735 2.592,-2.735 1.512,0 2.52,1.008 2.52,2.664 L 1.512,0 0,0 z" />
          </g>
        </g>
      </g>
      <path
         inkscape:connector-curvature="0"
         id="path4764"
         style="fill:#3a393a;fill-opacity:1;fill-rule:nonzero;stroke:none"
         d="m 378.58942,229.23845 1.9915,0 0,72.8037 -1.9915,0 0,-72.8037 z" />
      <path
         inkscape:connector-curvature="0"
         id="path4766"
         style="fill:none;stroke:#211c1d;stroke-width:1.72872913;stroke-linecap:butt;stroke-linejoin:miter;stroke-miterlimit:10;stroke-opacity:1;stroke-dasharray:none"
         d="m 378.58942,302.04215 1.9915,0 0,-72.80717 -1.9915,0 0,72.80717 z" />
      <g
         transform="matrix(3.4574583,0,0,3.4574583,-1007.8099,-602.71592)"
         id="g4768">
        <g
           clip-path="url(#clipPath4772)"
           id="g4770">
          <g
             transform="translate(411.6609,240.6256)"
             id="g4776">
            <path
               inkscape:connector-curvature="0"
               id="path4778"
               style="fill:#3a393a;fill-opacity:1;fill-rule:nonzero;stroke:none"
               d="m 0,0 c -0.144,0.756 -0.216,1.62 -0.216,2.411 l 0,5.04 c 0,1.583 -1.008,2.447 -2.592,2.447 l -2.159,0 0,-9.898 -0.576,0 0,21.093 3.275,0 c 1.764,0 2.52,-1.332 2.52,-2.879 l 0,-5.436 c 0,-1.404 -0.468,-2.232 -1.8,-2.664 C 0,9.719 0.36,8.495 0.36,7.451 l 0,-5.04 C 0.36,1.655 0.468,0.72 0.576,0 L 0,0 z m -0.288,12.778 0,5.436 c 0,1.332 -0.612,2.375 -1.98,2.375 l -2.699,0 0,-10.187 2.159,0 c 1.728,0 2.52,0.792 2.52,2.376" />
          </g>
          <g
             transform="translate(411.6609,240.6256)"
             id="g4780">
            <path
               inkscape:connector-curvature="0"
               id="path4782"
               style="fill:none;stroke:#211c1d;stroke-width:0.5;stroke-linecap:butt;stroke-linejoin:miter;stroke-miterlimit:10;stroke-opacity:1;stroke-dasharray:none"
               d="m 0,0 c -0.144,0.756 -0.216,1.62 -0.216,2.411 l 0,5.04 c 0,1.583 -1.008,2.447 -2.592,2.447 l -2.159,0 0,-9.898 -0.576,0 0,21.093 3.275,0 c 1.764,0 2.52,-1.332 2.52,-2.879 l 0,-5.436 c 0,-1.404 -0.468,-2.232 -1.8,-2.664 C 0,9.719 0.36,8.495 0.36,7.451 l 0,-5.04 C 0.36,1.655 0.468,0.72 0.576,0 L 0,0 z m -0.288,12.778 0,5.436 c 0,1.332 -0.612,2.375 -1.98,2.375 l -2.699,0 0,-10.187 2.159,0 c 1.728,0 2.52,0.792 2.52,2.376 z" />
          </g>
        </g>
      </g>
      <g
         transform="matrix(3.4574583,0,0,3.4574583,448.23854,229.23706)"
         id="g4784">
        <path
           inkscape:connector-curvature="0"
           id="path4786"
           style="fill:#3a393a;fill-opacity:1;fill-rule:nonzero;stroke:none"
           d="m 0,0 -4.535,0 0,21.058 0.575,0 0,-20.483 3.96,0 L 0,0 z" />
      </g>
      <g
         transform="matrix(3.4574583,0,0,3.4574583,448.23854,229.23706)"
         id="g4788">
        <path
           inkscape:connector-curvature="0"
           id="path4790"
           style="fill:none;stroke:#211c1d;stroke-width:0.5;stroke-linecap:butt;stroke-linejoin:miter;stroke-miterlimit:10;stroke-opacity:1;stroke-dasharray:none"
           d="m 0,0 -4.535,0 0,21.058 0.575,0 0,-20.483 3.96,0 L 0,0 z" />
      </g>
      <g
         transform="matrix(3.4574583,0,0,3.4574583,-1007.8099,-602.71592)"
         id="g4792">
        <g
           clip-path="url(#clipPath4796)"
           id="g4794">
          <g
             transform="translate(425.2874,243.6852)"
             id="g4800">
            <path
               inkscape:connector-curvature="0"
               id="path4802"
               style="fill:#3a393a;fill-opacity:1;fill-rule:nonzero;stroke:none"
               d="m 0,0 c 0,-1.836 0.935,-2.951 2.627,-2.951 1.656,0 2.628,1.151 2.628,3.096 0,2.375 -1.152,4.57 -2.664,7.162 l -0.216,0.36 c -1.367,2.268 -2.663,4.427 -2.663,7.127 0,2.196 1.26,3.6 3.24,3.6 1.691,0 2.879,-1.332 2.879,-3.384 l 0,-1.367 -0.576,0 0,1.367 c 0,1.728 -0.9,2.844 -2.303,2.844 -1.692,0 -2.664,-1.188 -2.664,-3.06 0,-2.556 1.151,-4.535 2.555,-6.839 L 3.06,7.595 c 1.583,-2.663 2.771,-4.931 2.771,-7.45 0,-2.161 -1.296,-3.637 -3.204,-3.637 -1.979,0 -3.203,1.404 -3.203,3.492 l 0,1.187 L 0,1.187 0,0 z" />
          </g>
          <g
             transform="translate(425.2874,243.6852)"
             id="g4804">
            <path
               inkscape:connector-curvature="0"
               id="path4806"
               style="fill:none;stroke:#211c1d;stroke-width:0.5;stroke-linecap:butt;stroke-linejoin:miter;stroke-miterlimit:10;stroke-opacity:1;stroke-dasharray:none"
               d="m 0,0 c 0,-1.836 0.935,-2.951 2.627,-2.951 1.656,0 2.628,1.151 2.628,3.096 0,2.375 -1.152,4.57 -2.664,7.162 l -0.216,0.36 c -1.367,2.268 -2.663,4.427 -2.663,7.127 0,2.196 1.26,3.6 3.24,3.6 1.691,0 2.879,-1.332 2.879,-3.384 l 0,-1.367 -0.576,0 0,1.367 c 0,1.728 -0.9,2.844 -2.303,2.844 -1.692,0 -2.664,-1.188 -2.664,-3.06 0,-2.556 1.151,-4.535 2.555,-6.839 L 3.06,7.595 c 1.583,-2.663 2.771,-4.931 2.771,-7.45 0,-2.161 -1.296,-3.637 -3.204,-3.637 -1.979,0 -3.203,1.404 -3.203,3.492 l 0,1.187 L 0,1.187 0,0 z" />
          </g>
        </g>
      </g>
    </g>
    <path
       style="opacity:0;fill:none;stroke:#000000;stroke-width:2.18217254px;stroke-linecap:butt;stroke-linejoin:miter;stroke-opacity:1"
       d="m 467.2864,830.18684 c -62.75933,33.03759 -199.74393,32.06589 -250.55996,6.06929"
       id="path6354"
       inkscape:connector-curvature="0"
       sodipodi:nodetypes="cc"
       inkscape:export-filename="/Users/tom/Documents/home/graphics/tech-girl-sticker.png"
       inkscape:export-xdpi="90"
       inkscape:export-ydpi="90" />
    <text
       xml:space="preserve"
       style="font-size:2.11584568px;font-style:normal;font-variant:normal;font-weight:normal;font-stretch:condensed;text-align:start;line-height:125%;letter-spacing:0px;word-spacing:0px;writing-mode:lr-tb;text-anchor:start;fill:#b3b3b3;fill-opacity:1;stroke:none;font-family:Arial Narrow;-inkscape-font-specification:Arial Narrow Condensed"
       id="text6228"
       sodipodi:linespacing="125%"
       transform="matrix(1.3163213,9.3661127,-9.3548787,1.3147424,4110.1492,-1931.7128)"
       inkscape:export-filename="/Users/tom/Documents/home/graphics/tech-girl-sticker.png"
       inkscape:export-xdpi="90"
       inkscape:export-ydpi="90"><textPath
         xlink:href="#path6206"
         id="textPath6232"
         style="font-size:5.07802963px;font-style:normal;font-variant:normal;font-weight:normal;font-stretch:condensed;text-align:start;line-height:125%;writing-mode:lr-tb;text-anchor:start;fill:#b3b3b3;font-family:Arial Narrow;-inkscape-font-specification:Arial Narrow Condensed">tech-girls.org</textPath></text>
    <path
       sodipodi:type="arc"
       style="fill:none;stroke:#000000;stroke-width:1.074;stroke-miterlimit:4;stroke-opacity:1;stroke-dasharray:none"
       id="path7465"
       sodipodi:cx="220.69742"
       sodipodi:cy="410.01123"
       sodipodi:rx="167.04163"
       sodipodi:ry="192.85715"
       d="m 387.73904,410.01123 a 167.04163,192.85715 0 1 1 -334.083248,0 167.04163,192.85715 0 1 1 334.083248,0 z"
       transform="matrix(2.1034588,0,0,1.8218031,-85.992395,-220.4517)" />
    <g
       transform="matrix(9.0080176,0,0,-9.0080176,-1563.5394,4306.7939)"
       id="g7999">
      <g
         id="g8001"
         clip-path="url(#clipPath8003)">
        <g
           id="g8007"
           transform="translate(224.534,442.861)">
          <path
             inkscape:connector-curvature="0"
             d="m 0,0 c 0.437,0.981 1.747,1.35 2.924,0.824 l 8.521,-3.804 c 1.178,-0.524 1.778,-1.746 1.34,-2.727 l -0.08,-0.178 C 12.268,-6.865 10.912,-7.34 9.734,-6.814 l -8.522,3.803 c -1.177,0.525 -1.73,1.853 -1.292,2.833 L 0,0 z"
             style="fill:#cc2299;fill-opacity:1;fill-rule:nonzero;stroke:none"
             id="path8009" />
        </g>
        <g
           id="g8011"
           transform="translate(238.7547,432.9889)">
          <path
             inkscape:connector-curvature="0"
             d="M 0,0 C -2.305,-0.582 -4.642,0.813 -5.223,3.116 -5.805,5.418 -4.41,7.757 -2.107,8.339 0.195,8.92 2.533,7.524 3.115,5.222 3.696,2.919 2.302,0.581 0,0"
             style="fill:#cc2299;fill-opacity:1;fill-rule:nonzero;stroke:none"
             id="path8013" />
        </g>
        <g
           id="g8015"
           transform="translate(199.8738,436.6305)">
          <path
             inkscape:connector-curvature="0"
             d="m 0,0 c -0.852,0.656 -2.179,0.359 -2.964,-0.662 l -5.692,-7.396 c -0.787,-1.021 -0.735,-2.38 0.116,-3.036 l 0.154,-0.118 c 0.851,-0.655 2.271,-0.429 3.057,0.593 l 5.692,7.394 c 0.787,1.022 0.642,2.453 -0.209,3.108 L 0,0 z"
             style="fill:#cc2299;fill-opacity:1;fill-rule:nonzero;stroke:none"
             id="path8017" />
        </g>
        <g
           id="g8019"
           transform="translate(192.0486,421.1901)">
          <path
             inkscape:connector-curvature="0"
             d="M 0,0 C 2.304,0.581 3.698,2.919 3.116,5.222 2.535,7.524 0.197,8.92 -2.106,8.339 -4.408,7.757 -5.803,5.418 -5.222,3.116 -4.64,0.813 -2.302,-0.582 0,0"
             style="fill:#cc2299;fill-opacity:1;fill-rule:nonzero;stroke:none"
             id="path8021" />
        </g>
        <g
           id="g8023"
           transform="translate(222.9577,417.318)">
          <path
             inkscape:connector-curvature="0"
             d="m 0,0 -13.984,0 c -1.107,0 -2.008,0.901 -2.008,2.009 l 0,1.982 c 0,1.108 0.901,2.009 2.008,2.009 L 0,6 C 1.107,6 2.008,5.099 2.008,3.991 l 0,-1.982 C 2.008,0.901 1.107,0 0,0 M -13.984,4 -13.992,2.009 0,2 0.003,2 0.008,3.991 -13.984,4 z"
             style="fill:#9f1d68;fill-opacity:1;fill-rule:nonzero;stroke:none"
             id="path8025" />
        </g>
        <g
           id="g8027"
           transform="translate(224.9656,408.7575)">
          <path
             inkscape:connector-curvature="0"
             d="m 0,0 c 0,-0.795 -0.645,-1.44 -1.44,-1.44 l -14.12,0 C -16.355,-1.44 -17,-0.795 -17,0 l 0,2.121 c 0,0.795 0.645,1.439 1.44,1.439 l 14.12,0 C -0.645,3.56 0,2.916 0,2.121 L 0,0 z"
             style="fill:#cc2299;fill-opacity:1;fill-rule:nonzero;stroke:none"
             id="path8029" />
        </g>
        <g
           id="g8031"
           transform="translate(232.4743,432.359)">
          <path
             inkscape:connector-curvature="0"
             d="m 0,0 c 0.534,-2.115 -0.854,-4.292 -3.104,-4.86 l -26.468,-6.687 c -2.249,-0.567 -4.505,0.688 -5.04,2.803 l -4.194,16.599 c -0.535,2.118 0.812,4.463 3.061,5.031 l 26.469,6.686 c 2.249,0.569 4.549,-0.855 5.082,-2.971 L 0,0 z"
             style="fill:#cc2299;fill-opacity:1;fill-rule:nonzero;stroke:none"
             id="path8033" />
        </g>
        <g
           id="g8035"
           transform="translate(203.782,433.193)">
          <path
             inkscape:connector-curvature="0"
             d="m 0,0 c -0.342,-0.573 -0.518,-1.199 -0.543,-1.822 l -2.202,-1.05 2.495,-0.587 C 0.057,-4.206 0.596,-4.865 1.344,-5.312 3.18,-6.407 5.557,-5.807 6.653,-3.969 7.75,-2.132 7.148,0.246 5.312,1.342 3.475,2.438 1.098,1.836 0,0"
             style="fill:#ffffff;fill-opacity:1;fill-rule:nonzero;stroke:none"
             id="path8037" />
        </g>
        <g
           id="g8039"
           transform="translate(223.8972,438.275)">
          <path
             inkscape:connector-curvature="0"
             d="M 0,0 C 0.574,-0.344 1.026,-0.81 1.345,-1.346 L 3.781,-1.225 1.863,-2.924 C 1.948,-3.729 1.787,-4.564 1.342,-5.313 0.246,-7.148 -2.132,-7.748 -3.969,-6.652 -5.807,-5.557 -6.406,-3.18 -5.311,-1.343 -4.215,0.495 -1.836,1.096 0,0"
             style="fill:#ffffff;fill-opacity:1;fill-rule:nonzero;stroke:none"
             id="path8041" />
        </g>
        <g
           id="g8043"
           transform="translate(227.9801,410.2448)">
          <path
             inkscape:connector-curvature="0"
             d="m 0,0 c 0,-0.558 -0.451,-0.927 -1.007,-0.927 l -21.285,0 c -0.557,0 -1.008,0.369 -1.008,0.927 l 3.8,7.924 c 0.306,0.63 0.451,1.149 1.008,1.149 l 13.684,0 c 0.557,0 0.702,-0.519 1.008,-1.149 L 0,0 z"
             style="fill:#9f1d68;fill-opacity:1;fill-rule:nonzero;stroke:none"
             id="path8045" />
        </g>
      </g>
    </g>
  </g>
</svg>
