<?xml version="1.0" encoding="UTF-8" standalone="no"?>
<!-- Created with Inkscape (http://www.inkscape.org/) -->

<svg
   xmlns:dc="http://purl.org/dc/elements/1.1/"
   xmlns:cc="http://creativecommons.org/ns#"
   xmlns:rdf="http://www.w3.org/1999/02/22-rdf-syntax-ns#"
   xmlns:svg="http://www.w3.org/2000/svg"
   xmlns="http://www.w3.org/2000/svg"
   xmlns:sodipodi="http://sodipodi.sourceforge.net/DTD/sodipodi-0.dtd"
   xmlns:inkscape="http://www.inkscape.org/namespaces/inkscape"
   id="svg3023"
   version="1.1"
   inkscape:version="0.48.2 r9819"
   width="765"
   height="765"
   xml:space="preserve"
   sodipodi:docname="tech-girl-head-bounce.svg"><metadata
     id="metadata3029"><rdf:RDF><cc:Work
         rdf:about=""><dc:format>image/svg+xml</dc:format><dc:type
           rdf:resource="http://purl.org/dc/dcmitype/StillImage" /><dc:title /></cc:Work></rdf:RDF></metadata><defs
     id="defs3027"><clipPath
       clipPathUnits="userSpaceOnUse"
       id="clipPath3051"><path
         d="M 0,0 612,0 612,612 0,612 0,0 z"
         id="path3053" /></clipPath><clipPath
       clipPathUnits="userSpaceOnUse"
       id="clipPath3107"><path
         d="M 0,0 612,0 612,612 0,612 0,0 z"
         id="path3109" /></clipPath><clipPath
       clipPathUnits="userSpaceOnUse"
       id="clipPath3125"><path
         d="M 0,0 612,0 612,612 0,612 0,0 z"
         id="path3127" /></clipPath><clipPath
       clipPathUnits="userSpaceOnUse"
       id="clipPath3139"><path
         d="M 0,0 612,0 612,612 0,612 0,0 z"
         id="path3141" /></clipPath><clipPath
       clipPathUnits="userSpaceOnUse"
       id="clipPath3155"><path
         d="M 0,0 612,0 612,612 0,612 0,0 z"
         id="path3157" /></clipPath><clipPath
       clipPathUnits="userSpaceOnUse"
       id="clipPath3215"><path
         d="M 0,0 612,0 612,612 0,612 0,0 z"
         id="path3217" /></clipPath><clipPath
       clipPathUnits="userSpaceOnUse"
       id="clipPath3233"><path
         d="M 0,0 612,0 612,612 0,612 0,0 z"
         id="path3235" /></clipPath><clipPath
       clipPathUnits="userSpaceOnUse"
       id="clipPath3247"><path
         d="M 0,0 612,0 612,612 0,612 0,0 z"
         id="path3249" /></clipPath><clipPath
       clipPathUnits="userSpaceOnUse"
       id="clipPath3263"><path
         d="M 0,0 612,0 612,612 0,612 0,0 z"
         id="path3265" /></clipPath><clipPath
       clipPathUnits="userSpaceOnUse"
       id="clipPath3323"><path
         d="M 0,0 612,0 612,612 0,612 0,0 z"
         id="path3325" /></clipPath><clipPath
       clipPathUnits="userSpaceOnUse"
       id="clipPath3341"><path
         d="M 0,0 612,0 612,612 0,612 0,0 z"
         id="path3343" /></clipPath><clipPath
       clipPathUnits="userSpaceOnUse"
       id="clipPath3357"><path
         d="M 0,0 612,0 612,612 0,612 0,0 z"
         id="path3359" /></clipPath><clipPath
       clipPathUnits="userSpaceOnUse"
       id="clipPath3373"><path
         d="M 0,0 612,0 612,612 0,612 0,0 z"
         id="path3375" /></clipPath><clipPath
       clipPathUnits="userSpaceOnUse"
       id="clipPath3429"><path
         d="M 0,0 612,0 612,612 0,612 0,0 z"
         id="path3431" /></clipPath><clipPath
       clipPathUnits="userSpaceOnUse"
       id="clipPath3453"><path
         d="M 0,0 612,0 612,612 0,612 0,0 z"
         id="path3455" /></clipPath><clipPath
       clipPathUnits="userSpaceOnUse"
       id="clipPath3473"><path
         d="M 0,0 612,0 612,612 0,612 0,0 z"
         id="path3475" /></clipPath><clipPath
       clipPathUnits="userSpaceOnUse"
       id="clipPath3497"><path
         d="M 0,0 612,0 612,612 0,612 0,0 z"
         id="path3499" /></clipPath></defs><sodipodi:namedview
     pagecolor="#ffffff"
     bordercolor="#666666"
     borderopacity="1"
     objecttolerance="10"
     gridtolerance="10"
     guidetolerance="10"
     inkscape:pageopacity="0"
     inkscape:pageshadow="2"
     inkscape:window-width="1148"
     inkscape:window-height="902"
     id="namedview3025"
     showgrid="false"
     inkscape:zoom="1.1295222"
     inkscape:cx="388.55141"
     inkscape:cy="440.5357"
     inkscape:window-x="0"
     inkscape:window-y="0"
     inkscape:window-maximized="0"
     inkscape:current-layer="g3650" /><g
     id="g3031"
     inkscape:groupmode="layer"
     inkscape:label="tech_girls_v2"
     transform="matrix(1.25,0,0,-1.25,0,765)"><g
       transform="matrix(7.5665271,0,0,7.5574515,-1232.0975,-2946.0588)"
       clip-path="url(#clipPath3051)"
       id="g3049"><g
         id="g3650"
         transform="matrix(-0.87964856,-0.47619538,-0.47505373,0.87964857,589.51932,154.72829)"><g
           id="g3055"
           transform="matrix(0.73372985,0.68025724,0.67862637,-0.73372986,214.74189,441.14843)"><path
             d="m 0,0 c 0.437,0.981 1.747,1.35 2.924,0.824 l 8.521,-3.804 c 1.178,-0.524 1.778,-1.746 1.34,-2.727 l -0.08,-0.178 C 12.268,-6.865 10.912,-7.34 9.734,-6.814 l -8.522,3.803 c -1.177,0.525 -1.73,1.853 -1.292,2.833 L 0,0 z"
             style="fill:#cc2299;fill-opacity:1;fill-rule:nonzero;stroke:none"
             id="path3057"
             inkscape:connector-curvature="0" /></g><g
           id="g3059"
           transform="matrix(0.73372985,0.68025724,0.67862637,-0.73372986,218.47658,458.06562)"><path
             d="M 0,0 C -2.305,-0.582 -4.642,0.813 -5.223,3.116 -5.805,5.418 -4.41,7.757 -2.107,8.339 0.195,8.92 2.533,7.524 3.115,5.222 3.696,2.919 2.302,0.581 0,0"
             style="fill:#cc2299;fill-opacity:1;fill-rule:nonzero;stroke:none"
             id="path3061"
             inkscape:connector-curvature="0" /></g><g
           id="g3063"
           transform="matrix(0.73372985,0.68025724,0.67862637,-0.73372986,192.26809,429.22553)"><path
             d="m 0,0 c -0.852,0.656 -2.179,0.359 -2.964,-0.662 l -5.692,-7.396 c -0.787,-1.021 -0.735,-2.38 0.116,-3.036 l 0.154,-0.118 c 0.851,-0.655 2.271,-0.429 3.057,0.593 l 5.692,7.394 c 0.787,1.022 0.642,2.453 -0.209,3.108 L 0,0 z"
             style="fill:#cc2299;fill-opacity:1;fill-rule:nonzero;stroke:none"
             id="path3065"
             inkscape:connector-curvature="0" /></g><g
           id="g3067"
           transform="matrix(0.54756321,0.83776917,0.83576068,-0.54756321,177.45918,429.39012)"><path
             d="M 4.1093936,-4.3805409 C 6.2045669,-3.2587416 6.9922242,-0.65254613 5.8710342,1.4410773 4.7510561,3.5339727 2.1451868,4.3222129 0.0509838,3.2006559 -2.0420073,2.0783708 -2.8303932,-0.52903724 -1.7104152,-2.6219326 -0.58922519,-4.715556 2.0164025,-5.5028259 4.1093936,-4.3805409"
             style="fill:#cc2299;fill-opacity:1;fill-rule:nonzero;stroke:none"
             id="path3069"
             inkscape:connector-curvature="0" /></g><g
           id="g3079"
           transform="matrix(0.97029573,0.24221241,-0.24163173,0.97029573,220.87946,440.48172)"><path
             d="m 0,0 c 0.534,-2.115 -0.854,-4.292 -3.104,-4.86 l -26.468,-6.687 c -2.249,-0.567 -4.505,0.688 -5.04,2.803 l -4.194,16.599 c -0.535,2.118 0.812,4.463 3.061,5.031 l 26.469,6.686 c 2.249,0.569 4.549,-0.855 5.082,-2.971 L 0,0 z"
             style="fill:#cc2299;fill-opacity:1;fill-rule:nonzero;stroke:none"
             id="path3081"
             inkscape:connector-curvature="0" /></g><g
           id="g3083"
           transform="matrix(0.97029573,0.24221241,-0.24163173,0.97029573,192.83792,434.34132)"><path
             d="m 0,0 c -0.342,-0.573 -0.518,-1.199 -0.543,-1.822 l -2.202,-1.05 2.495,-0.587 C 0.057,-4.206 0.596,-4.865 1.344,-5.312 3.18,-6.407 5.557,-5.807 6.653,-3.969 7.75,-2.132 7.148,0.246 5.312,1.342 3.475,2.438 1.098,1.836 0,0"
             style="fill:#ffffff;fill-opacity:1;fill-rule:nonzero;stroke:none"
             id="path3085"
             inkscape:connector-curvature="0" /></g><g
           id="g3087"
           transform="matrix(0.97029573,0.24221241,-0.24163173,0.97029573,211.12764,444.14451)"><path
             d="M 0,0 C 0.574,-0.344 1.026,-0.81 1.345,-1.346 L 3.781,-1.225 1.863,-2.924 C 1.948,-3.729 1.787,-4.564 1.342,-5.313 0.246,-7.148 -2.132,-7.748 -3.969,-6.652 -5.807,-5.557 -6.406,-3.18 -5.311,-1.343 -4.215,0.495 -1.836,1.096 0,0"
             style="fill:#ffffff;fill-opacity:1;fill-rule:nonzero;stroke:none"
             id="path3089"
             inkscape:connector-curvature="0" /></g></g></g></g></svg>