<?xml version="1.0" encoding="UTF-8" standalone="no"?>
<!-- Created with Inkscape (http://www.inkscape.org/) -->

<svg
   xmlns:dc="http://purl.org/dc/elements/1.1/"
   xmlns:cc="http://creativecommons.org/ns#"
   xmlns:rdf="http://www.w3.org/1999/02/22-rdf-syntax-ns#"
   xmlns:svg="http://www.w3.org/2000/svg"
   xmlns="http://www.w3.org/2000/svg"
   xmlns:sodipodi="http://sodipodi.sourceforge.net/DTD/sodipodi-0.dtd"
   xmlns:inkscape="http://www.inkscape.org/namespaces/inkscape"
   width="744.09448819"
   height="1052.3622047"
   id="svg5009"
   version="1.1"
   inkscape:version="0.48.2 r9819"
   sodipodi:docname="tech-girls-text.svg">
  <defs
     id="defs5011">
    <clipPath
       clipPathUnits="userSpaceOnUse"
       id="clipPath4728">
      <path
         inkscape:connector-curvature="0"
         d="M 0,0 612,0 612,612 0,612 0,0 z"
         id="path4730" />
    </clipPath>
    <clipPath
       clipPathUnits="userSpaceOnUse"
       id="clipPath4752">
      <path
         inkscape:connector-curvature="0"
         d="M 0,0 612,0 612,612 0,612 0,0 z"
         id="path4754" />
    </clipPath>
    <clipPath
       clipPathUnits="userSpaceOnUse"
       id="clipPath4772">
      <path
         inkscape:connector-curvature="0"
         d="M 0,0 612,0 612,612 0,612 0,0 z"
         id="path4774" />
    </clipPath>
    <clipPath
       clipPathUnits="userSpaceOnUse"
       id="clipPath4796">
      <path
         inkscape:connector-curvature="0"
         d="M 0,0 612,0 612,612 0,612 0,0 z"
         id="path4798" />
    </clipPath>
  </defs>
  <sodipodi:namedview
     id="base"
     pagecolor="#ffffff"
     bordercolor="#666666"
     borderopacity="1.0"
     inkscape:pageopacity="0.0"
     inkscape:pageshadow="2"
     inkscape:zoom="0.35"
     inkscape:cx="375"
     inkscape:cy="520"
     inkscape:document-units="px"
     inkscape:current-layer="layer1"
     showgrid="false"
     inkscape:window-width="483"
     inkscape:window-height="454"
     inkscape:window-x="704"
     inkscape:window-y="88"
     inkscape:window-maximized="0" />
  <metadata
     id="metadata5014">
    <rdf:RDF>
      <cc:Work
         rdf:about="">
        <dc:format>image/svg+xml</dc:format>
        <dc:type
           rdf:resource="http://purl.org/dc/dcmitype/StillImage" />
        <dc:title></dc:title>
      </cc:Work>
    </rdf:RDF>
  </metadata>
  <g
     inkscape:label="Layer 1"
     inkscape:groupmode="layer"
     id="layer1">
    <g
       transform="matrix(1.4072866,0,0,-1.57028,-114.23088,1003.6782)"
       id="g5024"
       inkscape:export-filename="/Users/tom/Documents/home/graphics/tech-girls/tech-girls-text-179x50.png"
       inkscape:export-xdpi="36.972153"
       inkscape:export-ydpi="36.972153">
      <g
         transform="matrix(3.4574583,0,0,3.4574583,185.8669,300.051)"
         id="g4720">
        <path
           inkscape:connector-curvature="0"
           id="path4722"
           style="fill:#3a393a;fill-opacity:1;fill-rule:nonzero;stroke:none"
           d="m 0,0 0,-20.481 -0.576,0 0,20.481 -2.843,0 0,0.504 6.191,0 L 2.772,0 0,0 z" />
      </g>
      <g
         transform="matrix(3.4574583,0,0,3.4574583,-1007.8099,-602.71592)"
         id="g4724">
        <g
           clip-path="url(#clipPath4728)"
           id="g4726">
          <g
             transform="translate(357.8318,251.4235)"
             id="g4732">
            <path
               inkscape:connector-curvature="0"
               id="path4734"
               style="fill:#3a393a;fill-opacity:1;fill-rule:nonzero;stroke:none"
               d="m 0,0 -5.399,0 0,-7.774 c 0,-1.584 0.864,-2.736 2.448,-2.736 1.512,0 2.375,1.008 2.375,2.664 l 0,2.915 0.576,0 0,-2.915 c 0,-1.908 -1.116,-3.24 -2.951,-3.24 -1.764,0 -3.024,1.404 -3.024,3.312 l 0,15.045 c 0,1.944 1.152,3.276 3.024,3.276 C -1.116,10.547 0,9.252 0,7.308 L 0,0 z m -0.576,7.308 c 0,1.655 -0.792,2.7 -2.375,2.7 -1.44,0 -2.448,-1.153 -2.448,-2.737 l 0,-6.73 4.823,0 0,6.767 z" />
          </g>
          <g
             transform="translate(367.6599,258.7311)"
             id="g4736">
            <path
               inkscape:connector-curvature="0"
               id="path4738"
               style="fill:#3a393a;fill-opacity:1;fill-rule:nonzero;stroke:none"
               d="m 0,0 c 0,1.655 -0.792,2.7 -2.375,2.7 -1.44,0 -2.448,-1.152 -2.448,-2.736 l 0,-15.046 c 0,-1.584 0.864,-2.735 2.448,-2.735 1.511,0 2.375,1.007 2.375,2.664 l 0,2.699 0.576,0 0,-2.699 c 0,-1.909 -1.116,-3.241 -2.951,-3.241 -1.764,0 -3.024,1.405 -3.024,3.312 l 0,15.046 c 0,1.943 1.152,3.275 3.024,3.275 1.835,0 2.951,-1.295 2.951,-3.239 l 0,-2.7 L 0,-2.7 0,0 z" />
          </g>
        </g>
      </g>
      <g
         transform="matrix(3.4574583,0,0,3.4574583,302.32757,229.23706)"
         id="g4740">
        <path
           inkscape:connector-curvature="0"
           id="path4742"
           style="fill:#3a393a;fill-opacity:1;fill-rule:nonzero;stroke:none"
           d="m 0,0 -0.576,0 0,10.007 -5.219,0 0,-10.007 -0.576,0 0,21.058 0.576,0 0,-10.475 5.219,0 0,10.475 0.576,0 L 0,0 z" />
      </g>
      <path
         inkscape:connector-curvature="0"
         id="path4744"
         style="fill:#3a393a;fill-opacity:1;fill-rule:nonzero;stroke:none"
         d="m 316.73895,261.71781 10.82876,0 0,1.99149 -10.82876,0 0,-1.99149 z" />
      <path
         inkscape:connector-curvature="0"
         id="path4746"
         style="fill:none;stroke:#211c1d;stroke-width:1.72872913;stroke-linecap:butt;stroke-linejoin:miter;stroke-miterlimit:10;stroke-opacity:1;stroke-dasharray:none"
         d="m 327.57116,261.71781 -10.82875,0 0,1.99149 10.82875,0 0,-1.99149 z" />
      <g
         transform="matrix(3.4574583,0,0,3.4574583,-1007.8099,-602.71592)"
         id="g4748">
        <g
           clip-path="url(#clipPath4752)"
           id="g4750">
          <g
             transform="translate(394.4894,250.2008)"
             id="g4756">
            <path
               inkscape:connector-curvature="0"
               id="path4758"
               style="fill:#3a393a;fill-opacity:1;fill-rule:nonzero;stroke:none"
               d="m 0,0 0,0.539 2.087,0 0,-7.162 c 0,-1.908 -1.295,-3.24 -3.095,-3.24 -1.764,0 -3.168,1.404 -3.168,3.311 l 0,15.046 c 0,1.944 1.296,3.276 3.168,3.276 1.836,0 3.095,-1.295 3.095,-3.24 l 0,-2.196 -0.575,0 0,2.196 c 0,1.693 -0.972,2.7 -2.52,2.7 -1.584,0 -2.592,-1.224 -2.592,-2.736 l 0,-15.046 c 0,-1.584 1.008,-2.735 2.592,-2.735 1.512,0 2.52,1.008 2.52,2.664 L 1.512,0 0,0 z" />
          </g>
          <g
             transform="translate(394.4894,250.2008)"
             id="g4760">
            <path
               inkscape:connector-curvature="0"
               id="path4762"
               style="fill:none;stroke:#211c1d;stroke-width:0.5;stroke-linecap:butt;stroke-linejoin:miter;stroke-miterlimit:10;stroke-opacity:1;stroke-dasharray:none"
               d="m 0,0 0,0.539 2.087,0 0,-7.162 c 0,-1.908 -1.295,-3.24 -3.095,-3.24 -1.764,0 -3.168,1.404 -3.168,3.311 l 0,15.046 c 0,1.944 1.296,3.276 3.168,3.276 1.836,0 3.095,-1.295 3.095,-3.24 l 0,-2.196 -0.575,0 0,2.196 c 0,1.693 -0.972,2.7 -2.52,2.7 -1.584,0 -2.592,-1.224 -2.592,-2.736 l 0,-15.046 c 0,-1.584 1.008,-2.735 2.592,-2.735 1.512,0 2.52,1.008 2.52,2.664 L 1.512,0 0,0 z" />
          </g>
        </g>
      </g>
      <path
         inkscape:connector-curvature="0"
         id="path4764"
         style="fill:#3a393a;fill-opacity:1;fill-rule:nonzero;stroke:none"
         d="m 378.58942,229.23845 1.9915,0 0,72.8037 -1.9915,0 0,-72.8037 z" />
      <path
         inkscape:connector-curvature="0"
         id="path4766"
         style="fill:none;stroke:#211c1d;stroke-width:1.72872913;stroke-linecap:butt;stroke-linejoin:miter;stroke-miterlimit:10;stroke-opacity:1;stroke-dasharray:none"
         d="m 378.58942,302.04215 1.9915,0 0,-72.80717 -1.9915,0 0,72.80717 z" />
      <g
         transform="matrix(3.4574583,0,0,3.4574583,-1007.8099,-602.71592)"
         id="g4768">
        <g
           clip-path="url(#clipPath4772)"
           id="g4770">
          <g
             transform="translate(411.6609,240.6256)"
             id="g4776">
            <path
               inkscape:connector-curvature="0"
               id="path4778"
               style="fill:#3a393a;fill-opacity:1;fill-rule:nonzero;stroke:none"
               d="m 0,0 c -0.144,0.756 -0.216,1.62 -0.216,2.411 l 0,5.04 c 0,1.583 -1.008,2.447 -2.592,2.447 l -2.159,0 0,-9.898 -0.576,0 0,21.093 3.275,0 c 1.764,0 2.52,-1.332 2.52,-2.879 l 0,-5.436 c 0,-1.404 -0.468,-2.232 -1.8,-2.664 C 0,9.719 0.36,8.495 0.36,7.451 l 0,-5.04 C 0.36,1.655 0.468,0.72 0.576,0 L 0,0 z m -0.288,12.778 0,5.436 c 0,1.332 -0.612,2.375 -1.98,2.375 l -2.699,0 0,-10.187 2.159,0 c 1.728,0 2.52,0.792 2.52,2.376" />
          </g>
          <g
             transform="translate(411.6609,240.6256)"
             id="g4780">
            <path
               inkscape:connector-curvature="0"
               id="path4782"
               style="fill:none;stroke:#211c1d;stroke-width:0.5;stroke-linecap:butt;stroke-linejoin:miter;stroke-miterlimit:10;stroke-opacity:1;stroke-dasharray:none"
               d="m 0,0 c -0.144,0.756 -0.216,1.62 -0.216,2.411 l 0,5.04 c 0,1.583 -1.008,2.447 -2.592,2.447 l -2.159,0 0,-9.898 -0.576,0 0,21.093 3.275,0 c 1.764,0 2.52,-1.332 2.52,-2.879 l 0,-5.436 c 0,-1.404 -0.468,-2.232 -1.8,-2.664 C 0,9.719 0.36,8.495 0.36,7.451 l 0,-5.04 C 0.36,1.655 0.468,0.72 0.576,0 L 0,0 z m -0.288,12.778 0,5.436 c 0,1.332 -0.612,2.375 -1.98,2.375 l -2.699,0 0,-10.187 2.159,0 c 1.728,0 2.52,0.792 2.52,2.376 z" />
          </g>
        </g>
      </g>
      <g
         transform="matrix(3.4574583,0,0,3.4574583,448.23854,229.23706)"
         id="g4784">
        <path
           inkscape:connector-curvature="0"
           id="path4786"
           style="fill:#3a393a;fill-opacity:1;fill-rule:nonzero;stroke:none"
           d="m 0,0 -4.535,0 0,21.058 0.575,0 0,-20.483 3.96,0 L 0,0 z" />
      </g>
      <g
         transform="matrix(3.4574583,0,0,3.4574583,448.23854,229.23706)"
         id="g4788">
        <path
           inkscape:connector-curvature="0"
           id="path4790"
           style="fill:none;stroke:#211c1d;stroke-width:0.5;stroke-linecap:butt;stroke-linejoin:miter;stroke-miterlimit:10;stroke-opacity:1;stroke-dasharray:none"
           d="m 0,0 -4.535,0 0,21.058 0.575,0 0,-20.483 3.96,0 L 0,0 z" />
      </g>
      <g
         transform="matrix(3.4574583,0,0,3.4574583,-1007.8099,-602.71592)"
         id="g4792">
        <g
           clip-path="url(#clipPath4796)"
           id="g4794">
          <g
             transform="translate(425.2874,243.6852)"
             id="g4800">
            <path
               inkscape:connector-curvature="0"
               id="path4802"
               style="fill:#3a393a;fill-opacity:1;fill-rule:nonzero;stroke:none"
               d="m 0,0 c 0,-1.836 0.935,-2.951 2.627,-2.951 1.656,0 2.628,1.151 2.628,3.096 0,2.375 -1.152,4.57 -2.664,7.162 l -0.216,0.36 c -1.367,2.268 -2.663,4.427 -2.663,7.127 0,2.196 1.26,3.6 3.24,3.6 1.691,0 2.879,-1.332 2.879,-3.384 l 0,-1.367 -0.576,0 0,1.367 c 0,1.728 -0.9,2.844 -2.303,2.844 -1.692,0 -2.664,-1.188 -2.664,-3.06 0,-2.556 1.151,-4.535 2.555,-6.839 L 3.06,7.595 c 1.583,-2.663 2.771,-4.931 2.771,-7.45 0,-2.161 -1.296,-3.637 -3.204,-3.637 -1.979,0 -3.203,1.404 -3.203,3.492 l 0,1.187 L 0,1.187 0,0 z" />
          </g>
          <g
             transform="translate(425.2874,243.6852)"
             id="g4804">
            <path
               inkscape:connector-curvature="0"
               id="path4806"
               style="fill:none;stroke:#211c1d;stroke-width:0.5;stroke-linecap:butt;stroke-linejoin:miter;stroke-miterlimit:10;stroke-opacity:1;stroke-dasharray:none"
               d="m 0,0 c 0,-1.836 0.935,-2.951 2.627,-2.951 1.656,0 2.628,1.151 2.628,3.096 0,2.375 -1.152,4.57 -2.664,7.162 l -0.216,0.36 c -1.367,2.268 -2.663,4.427 -2.663,7.127 0,2.196 1.26,3.6 3.24,3.6 1.691,0 2.879,-1.332 2.879,-3.384 l 0,-1.367 -0.576,0 0,1.367 c 0,1.728 -0.9,2.844 -2.303,2.844 -1.692,0 -2.664,-1.188 -2.664,-3.06 0,-2.556 1.151,-4.535 2.555,-6.839 L 3.06,7.595 c 1.583,-2.663 2.771,-4.931 2.771,-7.45 0,-2.161 -1.296,-3.637 -3.204,-3.637 -1.979,0 -3.203,1.404 -3.203,3.492 l 0,1.187 L 0,1.187 0,0 z" />
          </g>
        </g>
      </g>
    </g>
  </g>
</svg>
